<?xml version="1.0" encoding="utf-8"?>
<!-- Generator: Adobe Illustrator 17.0.0, SVG Export Plug-In . SVG Version: 6.00 Build 0)  -->
<!DOCTYPE svg PUBLIC "-//W3C//DTD SVG 1.1//EN" "http://www.w3.org/Graphics/SVG/1.1/DTD/svg11.dtd">
<svg version="1.1" id="Layer_1" xmlns="http://www.w3.org/2000/svg" xmlns:xlink="http://www.w3.org/1999/xlink" x="0px" y="0px"
	 width="512px" height="512px" viewBox="0 0 512 512" enable-background="new 0 0 512 512" xml:space="preserve">
<path d="M254.753,416.253c-7.396,0-14.104-4.345-17.124-11.1L125.794,155.175l-84.47,158.64c-4.87,9.148-16.229,12.616-25.378,7.742
	c-9.145-4.869-12.611-16.231-7.741-25.376L110.7,103.691c3.365-6.325,10.025-10.184,17.204-9.933
	c7.161,0.246,13.555,4.548,16.48,11.089l110.238,246.412l62.958-142.884c2.852-6.475,9.106-10.794,16.175-11.17
	c7.13-0.348,13.744,3.26,17.265,9.397l37.091,64.635h99.13c10.361,0,18.761,8.4,18.761,18.761s-8.4,18.761-18.761,18.761H377.245
	c-6.721,0-12.926-3.594-16.272-9.423l-24.025-41.865L271.92,405.057c-2.989,6.786-9.698,11.174-17.115,11.196
	C254.805,416.253,254.771,416.253,254.753,416.253z"/>
</svg>
