<?xml version="1.0" encoding="utf-8"?>
<!-- Generator: Adobe Illustrator 17.0.0, SVG Export Plug-In . SVG Version: 6.00 Build 0)  -->
<!DOCTYPE svg PUBLIC "-//W3C//DTD SVG 1.1//EN" "http://www.w3.org/Graphics/SVG/1.1/DTD/svg11.dtd">
<svg version="1.1" id="Layer_1" xmlns="http://www.w3.org/2000/svg" xmlns:xlink="http://www.w3.org/1999/xlink" x="0px" y="0px"
	 width="512px" height="512px" viewBox="0 0 512 512" enable-background="new 0 0 512 512" xml:space="preserve">
<g>
	<path d="M255.823,506C123.937,506.009,13.337,402.315,6.357,269.091c-7.205-137.676,98.939-255.548,236.6-262.752
		c137.797-7.128,255.507,98.966,262.692,236.591c3.025,57.712-14.186,115.053-48.459,161.458c-5.705,7.76-16.626,9.406-24.414,3.665
		c-7.753-5.721-9.396-16.652-3.667-24.414c29.477-39.91,44.272-89.234,41.675-138.885C464.6,126.352,363.389,35.053,244.781,41.204
		c-118.438,6.202-209.753,107.61-203.56,226.063c6.21,118.42,107.566,209.541,225.995,203.527
		c42.335-2.219,82.605-16.635,116.441-41.693c7.77-5.73,18.693-4.086,24.423,3.642c5.732,7.753,4.103,18.682-3.64,24.423
		c-39.379,29.151-86.194,45.914-135.39,48.493C264.621,505.889,260.209,506,255.823,506L255.823,506z"/>
	<path d="M349.742,354.001c-1.057,0-2.131-0.203-3.168-0.633c-4.222-1.751-6.224-6.593-4.474-10.815l18.373-44.297
		c1.757-3.867,5.368-6.198,9.312-6.198c12.707-0.608,23.889-8.441,28.794-20.433c3.244-7.767,3.378-16.24,0.654-23.848
		l-8.884,21.461c-5.21,12.447-19.604,18.434-32.105,13.368c-12.605-5.268-18.542-19.708-13.319-32.224l8.893-21.517
		c-7.216,3.409-13.216,9.525-16.491,17.382c-4.933,11.909-2.441,25.735,6.357,35.205c0.608,0.655,1.096,1.391,1.456,2.175
		c1.222,2.349,1.476,5.141,0.626,7.755l-2.994,7.283c-1.752,4.221-6.596,6.224-10.815,4.472c-4.221-1.751-6.223-6.593-4.472-10.815
		l1.226-2.956c-10.848-13.987-13.514-32.943-6.668-49.471c7.224-17.328,23.285-28.998,41.925-30.472
		c1.324-0.111,3.237,0.199,4.461,0.717c5.328,2.409,7.662,8.253,5.505,13.386l-13.724,33.202c-1.721,4.125,0.228,8.855,4.332,10.571
		c4.056,1.641,8.812-0.327,10.527-4.422l12.864-31.08c0.126-0.484,0.298-0.958,0.517-1.418l0.518-1.093
		c2.055-4.728,7.737-7.173,12.825-5.327c2.265,1.039,3.612,2.135,4.642,3.48c11.64,13.969,14.573,33.424,7.44,50.505
		c-6.722,16.434-22.014,28.005-39.63,30.294l-16.856,40.653C356.068,352.079,352.988,354.001,349.742,354.001z"/>
	<path d="M305.852,354.001h-182.12c-6.865,0-12.432-5.566-12.432-12.432c0-31.861,14.304-61.418,39.244-81.091
		c5.39-4.252,13.207-3.331,17.46,2.062c4.252,5.39,3.33,13.208-2.062,17.46c-15.635,12.334-25.761,29.793-28.809,49.138H292.45
		c-3.05-19.335-13.178-36.798-28.812-49.141c-5.389-4.254-6.309-12.072-2.055-17.461c4.254-5.39,12.074-6.308,17.461-2.055
		c24.938,19.687,39.24,49.243,39.24,81.088C318.284,348.435,312.717,354.001,305.852,354.001z M214.758,262.939
		c-38.061,0-69.027-30.979-69.027-69.056c0-38.077,30.965-69.055,69.027-69.055c38.1,0,69.096,30.979,69.096,69.055
		C283.853,231.961,252.858,262.939,214.758,262.939z M214.758,149.692c-24.352,0-44.163,19.824-44.163,44.191
		c0,24.368,19.811,44.192,44.163,44.192c24.389,0,44.232-19.824,44.232-44.192C258.99,169.516,239.147,149.692,214.758,149.692z"/>
</g>
</svg>
