<?xml version="1.0" encoding="utf-8"?>
<!-- Generator: Adobe Illustrator 16.0.4, SVG Export Plug-In . SVG Version: 6.00 Build 0)  -->
<!DOCTYPE svg PUBLIC "-//W3C//DTD SVG 1.1//EN" "http://www.w3.org/Graphics/SVG/1.1/DTD/svg11.dtd">
<svg version="1.1" id="Layer_1" xmlns="http://www.w3.org/2000/svg" xmlns:xlink="http://www.w3.org/1999/xlink" x="0px" y="0px"
	 width="512px" height="512px" viewBox="0 0 512 512" enable-background="new 0 0 512 512" xml:space="preserve">
<path d="M16.875,491.812c-4.045,0-7.082-1.011-8.097-2.021c-9.102-5.061-11.127-12.143-6.066-21.25
	c12.138-20.236,29.342-33.389,51.604-38.449c22.255-6.067,43.505-3.036,63.741,8.097h1.015
	c33.389,15.179,61.721,11.127,87.012-14.164c5.061-5.062,10.123-12.144,15.179-21.251h-72.849c-21.25,0-38.45-17.198-38.45-38.449
	v-116.36c0-2.02,0-3.036,1.01-4.046c0-15.178,6.072-28.332,18.214-40.475L306.254,28.396c12.145-12.137,27.322-18.209,44.523-18.209
	c19.223,0,33.387,6.072,44.52,18.209l93.09,92.079c24.281,24.282,24.281,63.746,0,88.028l-177.07,176.054
	c-12.143,11.133-26.307,17.205-43.512,18.215h-13.153c-6.067,17.2-15.174,32.379-26.307,43.508
	c-32.379,32.377-82.967,40.475-124.453,19.224c-1.01,0-2.025,0-2.025-1.011c-13.154-7.082-26.307-8.091-39.46-5.061
	c-15.179,4.052-25.296,12.143-32.378,24.286C26.993,488.78,21.937,491.812,16.875,491.812L16.875,491.812z M259.713,371.405h7.082
	c9.107,0,16.189-3.035,22.262-9.107l177.068-175.045c12.145-13.153,12.145-32.377,0-45.531l-93.088-91.063
	c-12.143-12.144-32.379-12.144-44.521,0L151.45,225.703c-6.072,6.072-9.108,13.152-9.108,22.26c0,1.016,0,2.027-1.015,3.036v113.325
	c0,5.062,2.025,7.082,7.086,7.082h79.931c0-10.117-2.021-21.246-7.082-32.379c-2.021,1.016-5.057,1.016-10.118,1.016
	c-21.25,0-37.439-16.188-37.439-37.439c0-20.235,16.189-37.44,37.439-37.44c21.251,0,38.45,17.205,38.45,37.439
	c0,6.073-1.01,11.134-4.046,16.189C254.652,335.991,259.713,353.195,259.713,371.405z"/>
</svg>
