<?xml version="1.0" encoding="utf-8"?>
<!-- Generator: Adobe Illustrator 17.0.0, SVG Export Plug-In . SVG Version: 6.00 Build 0)  -->
<!DOCTYPE svg PUBLIC "-//W3C//DTD SVG 1.1//EN" "http://www.w3.org/Graphics/SVG/1.1/DTD/svg11.dtd">
<svg version="1.1" id="Layer_1" xmlns="http://www.w3.org/2000/svg" xmlns:xlink="http://www.w3.org/1999/xlink" x="0px" y="0px"
	 width="512px" height="512px" viewBox="0 0 512 512" enable-background="new 0 0 512 512" xml:space="preserve">
<g>
	<path d="M289.748,418.972c-1.774-1.782-3.556-3.556-5.329-3.556c-1.776-1.772-3.558-3.556-5.332-3.556
		c-7.101-3.546-14.205-5.33-23.089-5.33c-26.645,0-49.736,21.316-49.736,49.736c0,26.647,23.09,49.735,49.736,49.735
		c28.419,0,49.737-23.089,49.739-49.734C305.737,440.28,300.405,427.847,289.748,418.972z"/>
	<path d="M286.19,321.282V35.309c0-39.078-60.384-39.078-60.384,0v285.973C225.805,360.348,286.19,360.348,286.19,321.282z"/>
</g>
</svg>
