<?xml version="1.0" encoding="utf-8"?>
<!-- Generator: Adobe Illustrator 19.2.0, SVG Export Plug-In . SVG Version: 6.00 Build 0)  -->
<svg version="1.1" id="Layer_1" xmlns="http://www.w3.org/2000/svg" xmlns:xlink="http://www.w3.org/1999/xlink" x="0px" y="0px"
	 viewBox="0 0 512 512" style="enable-background:new 0 0 512 512;" xml:space="preserve">
<g>
	<path d="M511.4,243.1c-4.2-71.2-32.5-129.9-84.8-176C375.2,20,313.5-2,242.2,1.2C172.1,4.3,112.4,32.6,65.2,86
		C18.1,138.3-2.8,200.1,0.3,270.3c4.2,71.2,32.5,129.9,84.8,176c48.2,44,104.7,66,170.7,66v0h13.6c51.3-3.1,97.4-19.9,138.2-50.3
		c8.4-5.2,10.5-16.8,3.1-24.1c-7.3-10.5-14.7-11.5-24.1-4.2c-36.7,26.2-76.5,40.8-119.4,42.9c-61.8,2.1-115.2-16.8-159.2-56.6
		c-45-40.8-69.1-91.1-72.3-151.9C32.8,207.5,50.6,154.1,91.4,109c40.8-45,92.2-69.1,152.9-72.3c61.8-2.1,115.2,16.8,159.2,56.6
		c45,41.9,69.1,92.2,72.3,151.9c2.1,53.4-12.6,101.6-42.9,142.4c-7.3,9.4-6.3,16.8,4.2,24.1c9.4,7.3,16.8,6.3,24.1-3.1
		C497.8,359.3,514.5,304.9,511.4,243.1z"/>
	<path d="M273.7,281.8V113.2c0-23-35.6-23-35.6,0v168.6C238,304.9,273.7,304.9,273.7,281.8z"/>
	<path d="M226.5,361.4c0,15.7,13.6,29.3,29.3,29.3c16.8,0,29.3-13.6,29.3-29.3c0-9.4-3.1-16.8-9.4-22c-1-1.1-2.1-2.1-3.1-2.1
		c-1-1-2.1-2.1-3.1-2.1c-4.2-2.1-8.4-3.1-13.6-3.1C240.1,332.1,226.5,344.7,226.5,361.4z"/>
</g>
</svg>
