<?xml version="1.0" encoding="utf-8"?>
<!-- Generator: Adobe Illustrator 17.0.0, SVG Export Plug-In . SVG Version: 6.00 Build 0)  -->
<!DOCTYPE svg PUBLIC "-//W3C//DTD SVG 1.1//EN" "http://www.w3.org/Graphics/SVG/1.1/DTD/svg11.dtd">
<svg version="1.1" id="Layer_1" xmlns="http://www.w3.org/2000/svg" xmlns:xlink="http://www.w3.org/1999/xlink" x="0px" y="0px"
	 width="512px" height="512px" viewBox="0 0 512 512" enable-background="new 0 0 512 512" xml:space="preserve">
<g>
	<path fill="#FFFFFF" d="M136.864,160.181h-16.465v111.631h0.252v117.091c0,8.949,7.264,16.204,16.213,16.204h34.634v72.052
		c0,15.928,12.913,28.841,28.841,28.841c15.928,0,28.842-12.913,28.842-28.841v-72.052h53.635v72.052
		c0,15.928,12.913,28.841,28.842,28.841c15.932,0,28.845-12.913,28.845-28.841v-72.052h34.633c8.949,0,16.206-7.255,16.206-16.204
		V271.812h0.261V160.181h-16.467H136.864z"/>
	<path fill="#FFFFFF" d="M434.9,150.953c-15.928,0-28.842,12.913-28.842,28.843v129.612c0,15.928,12.913,28.841,28.842,28.841
		c15.932,0,28.845-12.913,28.845-28.841V179.796C463.745,163.866,450.832,150.953,434.9,150.953z"/>
	<path fill="#FFFFFF" d="M77.096,150.953c-15.928,0-28.841,12.913-28.841,28.843v129.612c0,15.928,12.913,28.841,28.841,28.841
		c15.932,0,28.846-12.913,28.846-28.841V179.796C105.942,163.866,93.029,150.953,77.096,150.953z"/>
	<path fill="#FFFFFF" d="M321.417,42.523l23.177-32.71c0.482-0.679-0.21-1.988-1.547-2.938c-1.325-0.938-2.797-1.161-3.279-0.482
		l-23.94,33.788C299.638,33.838,279.958,29.913,256,29.839c-24.094-0.074-43.857,3.73-60.094,9.976L172.225,6.394
		c-0.483-0.679-1.954-0.455-3.276,0.482c-1.337,0.95-2.03,2.259-1.551,2.938l22.893,32.309
		c-66.87,29.53-68.77,102.088-68.77,102.088h268.956C390.478,144.211,387.797,72.303,321.417,42.523z M196.977,101.811
		c-8.942,0-16.19-7.246-16.19-16.188s7.248-16.188,16.19-16.188c8.937,0,16.188,7.247,16.188,16.188
		S205.913,101.811,196.977,101.811z M315.024,101.811c-8.942,0-16.19-7.246-16.19-16.188s7.248-16.188,16.19-16.188
		c8.933,0,16.188,7.247,16.188,16.188S323.957,101.811,315.024,101.811z"/>
</g>
</svg>
