<?xml version="1.0" encoding="utf-8"?>
<!-- Generator: Adobe Illustrator 17.0.0, SVG Export Plug-In . SVG Version: 6.00 Build 0)  -->
<!DOCTYPE svg PUBLIC "-//W3C//DTD SVG 1.1//EN" "http://www.w3.org/Graphics/SVG/1.1/DTD/svg11.dtd">
<svg version="1.1" id="Layer_1" xmlns="http://www.w3.org/2000/svg" xmlns:xlink="http://www.w3.org/1999/xlink" x="0px" y="0px"
	 width="512px" height="512px" viewBox="0 0 512 512" enable-background="new 0 0 512 512" xml:space="preserve">
<path fill-rule="evenodd" clip-rule="evenodd" fill="#FFFFFF" d="M456.294,173.77c-25.777-32.124-61.946-50.71-96.073-50.71
	c-45.165,0-64.247,21.447-95.581,21.447c-32.293,0-56.846-21.412-95.911-21.412c-38.365,0-79.161,23.301-105.026,63.121
	c-36.393,56.022-30.225,161.416,28.783,251.228c21.107,32.106,49.295,68.222,86.146,68.553c32.753,0.301,42.03-20.901,86.473-21.146
	c44.444-0.245,52.848,21.377,85.608,21.076c36.845-0.355,66.583-40.332,87.68-72.457c15.126-22.997,20.747-34.614,32.496-60.647
	C385.57,340.59,371.848,220.037,456.294,173.77z M325.962,87.175C342.366,66.119,354.828,36.393,350.302,6
	c-26.802,1.853-58.15,18.903-76.453,41.125c-16.609,20.176-30.328,50.094-24.989,79.183
	C278.113,127.209,308.392,109.733,325.962,87.175z"/>
</svg>
