<?xml version="1.0" encoding="utf-8"?>
<!-- Generator: Adobe Illustrator 16.0.4, SVG Export Plug-In . SVG Version: 6.00 Build 0)  -->
<!DOCTYPE svg PUBLIC "-//W3C//DTD SVG 1.1//EN" "http://www.w3.org/Graphics/SVG/1.1/DTD/svg11.dtd">
<svg version="1.1" id="Layer_1" xmlns="http://www.w3.org/2000/svg" xmlns:xlink="http://www.w3.org/1999/xlink" x="0px" y="0px"
	 width="512px" height="512px" viewBox="0 0 512 512" enable-background="new 0 0 512 512" xml:space="preserve">
<path d="M319.836,462.338c10.497,0,19.946-4.198,27.294-11.551l146.974-149.069c25.193-25.198,25.193-67.187,0-91.332L347.13,61.311
	l-1.048-1.048c-6.3-7.348-14.7-10.498-26.246-10.498c-10.497,0-18.898,3.15-26.246,10.498c-8.4,8.4-11.546,17.845-10.497,27.294
	v3.149v67.188H16.439c-8.396,0-15.743,7.348-15.743,15.749c0,10.497,5.246,15.749,15.743,15.749h281.349
	c10.497,0,15.748-5.252,15.748-15.749V87.557c0-2.097,1.049-3.149,2.102-4.198c1.049-1.048,3.145-2.102,4.198-2.102
	c2.096,0,4.198,0,5.246,1.054c0,1.048,1.054,1.048,1.054,2.097l145.92,146.973c12.599,15.749,12.599,33.593,1.048,47.241
	L325.082,427.695c-3.15,3.145-6.3,4.198-9.444,1.049c-1.053-1.049-2.102-3.149-2.102-5.252v-3.149v-82.931
	c0-9.449-6.299-15.749-15.748-15.749H16.439c-10.497,0-15.743,5.252-15.743,15.749c0,8.396,7.348,15.743,15.743,15.743h266.653
	l-1.049,67.188v3.149C282.044,444.487,299.89,462.338,319.836,462.338z"/>
</svg>
