<?xml version="1.0" encoding="utf-8"?>
<!-- Generator: Adobe Illustrator 17.0.0, SVG Export Plug-In . SVG Version: 6.00 Build 0)  -->
<!DOCTYPE svg PUBLIC "-//W3C//DTD SVG 1.1//EN" "http://www.w3.org/Graphics/SVG/1.1/DTD/svg11.dtd">
<svg version="1.1" id="Layer_1" xmlns="http://www.w3.org/2000/svg" xmlns:xlink="http://www.w3.org/1999/xlink" x="0px" y="0px"
	 width="512px" height="512px" viewBox="0 0 512 512" enable-background="new 0 0 512 512" xml:space="preserve">
<g>
	<g>
		<path fill="#0073A0" d="M262.207,443.229L82.605,317.888H6V194.123h76.605L262.207,68.771V443.229z M37.248,286.629h55.188
			l138.518,96.676v-254.61L92.436,225.371H37.248V286.629z"/>
	</g>
	<g>
		<path fill="#0073A0" d="M349.88,402.619c-2.768,0-5.58-0.741-8.109-2.278c-7.379-4.49-9.711-14.104-5.232-21.471
			c17.035-27.978,27.193-73.907,27.193-122.877c0-48.948-10.158-94.872-27.183-122.856c-4.48-7.373-2.136-16.986,5.232-21.471
			c7.379-4.474,16.992-2.147,21.471,5.232c20.163,33.155,31.738,83.853,31.738,139.095c0,55.27-11.575,105.973-31.749,139.117
			C360.3,399.948,355.144,402.619,349.88,402.619z"/>
	</g>
	<g>
		<path fill="#0073A0" d="M460.888,402.619c-2.768,0-5.58-0.741-8.109-2.278c-7.379-4.49-9.711-14.104-5.232-21.471
			c17.035-27.978,27.193-73.907,27.193-122.877c0-48.965-10.158-94.888-27.183-122.85c-4.48-7.373-2.147-16.986,5.232-21.471
			c7.335-4.49,16.981-2.153,21.471,5.221C494.425,150.03,506,200.728,506,255.992c0,55.27-11.575,105.973-31.749,139.117
			C471.308,399.948,466.153,402.619,460.888,402.619z"/>
	</g>
</g>
</svg>
