<?xml version="1.0" encoding="utf-8"?>
<!-- Generator: Adobe Illustrator 17.0.0, SVG Export Plug-In . SVG Version: 6.00 Build 0)  -->
<!DOCTYPE svg PUBLIC "-//W3C//DTD SVG 1.1//EN" "http://www.w3.org/Graphics/SVG/1.1/DTD/svg11.dtd">
<svg version="1.1" id="Layer_1" xmlns="http://www.w3.org/2000/svg" xmlns:xlink="http://www.w3.org/1999/xlink" x="0px" y="0px"
	 width="512px" height="512px" viewBox="0 0 512 512" enable-background="new 0 0 512 512" xml:space="preserve">
<g>
	<path d="M371.419,65.618c-6.171-24.03-24.511-43.775-51.266-53.439c-17.37-6.263-79.717-21.476-157.891,42.588
		C76.171,92.18,20.644,176.617,20.644,270.639C20.644,400.417,126.226,506,256,506s235.356-105.583,235.356-235.361
		C491.356,184.891,445.625,107.369,371.419,65.618z M256,474.997c-112.688,0-204.363-91.675-204.363-204.358
		c0-82.323,48.998-156.241,124.816-188.308l-0.028-0.066c1.372-0.582,2.703-1.296,3.907-2.294
		c66.33-55.213,115.734-43.539,129.282-38.633c26.973,9.74,34.655,30.951,32.848,47.545c-1.675,15.336-12.28,34.376-36.698,37.564
		c-32.725,4.234-41.949-17.46-43.463-21.859c-2.81-8.089-11.665-12.365-19.716-9.57c-8.089,2.8-12.375,11.632-9.574,19.721
		c5.875,16.963,25.8,43.26,64.646,43.255c3.851,0,7.89-0.255,12.119-0.809c30.904-4.035,54.539-25.767,61.632-55.223
		c55.445,37.815,88.955,100.251,88.955,168.677C460.363,383.322,368.688,474.997,256,474.997z"/>
	<path d="M200.333,246.54c1.996,4.522,6.433,7.209,11.079,7.209c1.637,0,3.302-0.333,4.891-1.038
		c6.121-2.708,8.884-9.861,6.168-15.977c-8.922-20.163-28.08-33.193-48.799-33.193c-20.672,0-39.811,12.985-48.752,33.082
		c-2.715,6.112,0.038,13.269,6.15,15.986c6.112,2.72,13.264-0.035,15.989-6.142c5.128-11.54,15.327-18.706,26.613-18.706
		C184.987,227.76,195.205,234.955,200.333,246.54z"/>
	<path d="M338.29,203.54c-20.672,0-39.802,12.983-48.752,33.077c-2.725,6.109,0.019,13.269,6.131,15.989
		c6.102,2.729,13.274-0.026,15.989-6.135c5.147-11.542,15.345-18.711,26.632-18.711c11.315,0,21.523,7.193,26.642,18.773
		c2.006,4.525,6.433,7.216,11.088,7.216c1.637,0,3.292-0.333,4.891-1.036c6.112-2.706,8.884-9.856,6.178-15.972
		C378.167,216.573,359.019,203.54,338.29,203.54z"/>
	<path d="M328.593,350.259h-18.135c-5.552-24.971-27.843-43.711-54.458-43.711s-48.906,18.74-54.458,43.711h-18.135
		c-6.689,0-12.11,5.421-12.11,12.11c0,6.689,5.421,12.11,12.11,12.11h18.135c5.552,24.969,27.843,43.709,54.458,43.709
		s48.906-18.74,54.458-43.709h18.135c6.689,0,12.11-5.421,12.11-12.11C340.703,355.68,335.282,350.259,328.593,350.259z
		 M256,393.967c-17.427,0-31.599-14.175-31.599-31.599s14.172-31.601,31.599-31.601s31.599,14.177,31.599,31.601
		S273.427,393.967,256,393.967z"/>
</g>
</svg>
