<?xml version="1.0" encoding="utf-8"?>
<!-- Generator: Adobe Illustrator 19.2.0, SVG Export Plug-In . SVG Version: 6.00 Build 0)  -->
<svg version="1.1" id="Layer_1" xmlns="http://www.w3.org/2000/svg" xmlns:xlink="http://www.w3.org/1999/xlink" x="0px" y="0px"
	 viewBox="0 0 512 512" style="enable-background:new 0 0 512 512;" xml:space="preserve">
<g>
	<path d="M455,181.1c-0.3-0.8-0.7-1.6-1.2-2.3c0,0-0.1-0.1-0.1-0.1C417.9,108.4,347.3,60.5,266.2,60.5c-6.1,0-12.2,0.3-18.3,0.8
		C117.4,66.9,88.8,21.8,72.6,6c-11.6,34.5-3.2,69.5,4.5,85.7c-14.7,17.6-43.7,19.2-43.7,19.2c7.7,28.8,22,53.4,42.5,73.4
		c-14.5,30.6-22.1,64.7-22.1,99c0,122.8,95.3,222.7,212.4,222.7c117.1,0,212.4-99.9,212.4-222.7C478.6,246.5,470.1,211.7,455,181.1z
		 M57.5,126.3c17-3.5,32.3-14.6,41.8-26.9c0,0-10.9-25.1-13.9-54.6c29.9,23,69.2,44.5,156.4,41.9c1.2,0.2,2.5,0.3,3.8,0.1
		c6.8-0.8,13.7-1.2,20.6-1.2c67.7,0,127.2,38.2,160.1,95.2c-44.4,25-100.7,38.7-160.1,38.7C160.5,219.6,90.2,188.4,57.5,126.3z
		 M266.2,480.8C163,480.8,79,392.2,79,283.3c0-28.4,5.9-56.7,17-82.3c40.2,28.5,97.4,43.9,170.2,43.9c63.1,0,123.3-14.6,171.3-41.3
		c10.2,24.4,15.9,51.4,15.9,79.7C453.4,392.2,369.4,480.8,266.2,480.8z"/>
	<path d="M316.4,384.3c-14.8,13.4-32.1,20.5-50.2,20.5c-18,0-35.4-7.1-50.2-20.5c-5.1-4.7-13.1-4.3-17.8,0.9
		c-4.7,5.2-4.3,13.1,0.9,17.8c19.5,17.7,42.7,27.1,67.1,27.1c24.4,0,47.6-9.4,67.1-27.1c5.2-4.7,5.5-12.7,0.9-17.8
		C329.5,380,321.5,379.6,316.4,384.3z"/>
	<path d="M217.1,309c2.2,4.5,6.7,7.1,11.4,7.1c1.8,0,3.7-0.4,5.5-1.2c6.3-3,8.9-10.6,5.9-16.8c-8-16.7-25.2-27.4-43.7-27.4
		c-18.5,0-35.6,10.8-43.7,27.4c-3,6.3-0.4,13.8,5.9,16.8c6.3,3,13.8,0.4,16.8-5.9c3.9-8.1,12-13.2,21-13.2
		C205,295.9,213.2,301,217.1,309z"/>
	<path d="M336.3,270.7c-18.5,0-35.6,10.8-43.7,27.4c-3,6.3-0.4,13.8,5.9,16.8c6.2,3,13.8,0.4,16.8-5.9c3.9-8.1,12-13.2,21-13.2
		c9,0,17.1,5,21,13.2c2.2,4.5,6.7,7.1,11.4,7.1c1.8,0,3.7-0.4,5.5-1.3c6.3-3,8.9-10.6,5.9-16.8C371.9,281.4,354.8,270.7,336.3,270.7
		z"/>
</g>
</svg>
