<?xml version="1.0" encoding="utf-8"?>
<!-- Generator: Adobe Illustrator 17.0.0, SVG Export Plug-In . SVG Version: 6.00 Build 0)  -->
<!DOCTYPE svg PUBLIC "-//W3C//DTD SVG 1.1//EN" "http://www.w3.org/Graphics/SVG/1.1/DTD/svg11.dtd">
<svg version="1.1" id="Layer_1" xmlns="http://www.w3.org/2000/svg" xmlns:xlink="http://www.w3.org/1999/xlink" x="0px" y="0px"
	 width="512px" height="512px" viewBox="0 0 512 512" enable-background="new 0 0 512 512" xml:space="preserve">
<path d="M255.823,506.011C123.931,506.019,13.327,402.321,6.346,269.092C-0.859,131.41,105.29,13.533,242.956,6.328
	c137.803-7.128,255.517,98.97,262.704,236.601c3.025,57.714-14.186,115.058-48.461,161.465c-5.705,7.76-16.627,9.406-24.415,3.665
	c-7.753-5.721-9.397-16.653-3.667-24.415c29.478-39.912,44.273-89.238,41.677-138.891c-6.184-118.408-107.4-209.711-226.013-203.56
	C126.338,47.397,35.019,148.809,41.212,267.267c6.211,118.425,107.57,209.55,226.004,203.535
	c42.337-2.219,82.608-16.636,116.446-41.694c7.77-5.73,18.694-4.086,24.424,3.642c5.732,7.753,4.104,18.683-3.64,24.424
	c-39.38,29.152-86.198,45.916-135.396,48.495C264.622,505.9,260.209,506.011,255.823,506.011L255.823,506.011z"/>
</svg>
