<?xml version="1.0" encoding="utf-8"?>
<!-- Generator: Adobe Illustrator 17.0.0, SVG Export Plug-In . SVG Version: 6.00 Build 0)  -->
<!DOCTYPE svg PUBLIC "-//W3C//DTD SVG 1.1//EN" "http://www.w3.org/Graphics/SVG/1.1/DTD/svg11.dtd">
<svg version="1.1" id="Layer_1" xmlns="http://www.w3.org/2000/svg" xmlns:xlink="http://www.w3.org/1999/xlink" x="0px" y="0px"
	 width="512px" height="512px" viewBox="0 0 512 512" enable-background="new 0 0 512 512" xml:space="preserve">
<path d="M132.369,422.176l123.621-123.621l123.634,123.634c11.754,11.754,30.8,11.741,42.541,0
	c11.756-11.756,11.769-30.802,0.015-42.556L298.545,255.999l123.634-123.634c11.754-11.754,11.764-30.802,0.01-42.556
	c-11.754-11.754-30.8-11.741-42.553,0.011L256.002,213.455L132.367,89.819c-11.754-11.754-30.8-11.741-42.556,0.015
	c-11.741,11.741-11.754,30.787,0,42.541L213.446,256.01L89.826,379.631c-11.756,11.756-11.769,30.802-0.015,42.556
	C101.563,433.941,120.612,433.932,132.369,422.176z"/>
</svg>
