<?xml version="1.0" encoding="utf-8"?>
<!-- Generator: Adobe Illustrator 17.0.0, SVG Export Plug-In . SVG Version: 6.00 Build 0)  -->
<!DOCTYPE svg PUBLIC "-//W3C//DTD SVG 1.1//EN" "http://www.w3.org/Graphics/SVG/1.1/DTD/svg11.dtd">
<svg version="1.1" id="Layer_1" xmlns="http://www.w3.org/2000/svg" xmlns:xlink="http://www.w3.org/1999/xlink" x="0px" y="0px"
	 width="512px" height="512px" viewBox="0 0 512 512" enable-background="new 0 0 512 512" xml:space="preserve">
<g>
	<path d="M180.092,358.031l75.902-75.902l75.91,75.91c7.217,7.217,18.911,7.209,26.12,0c7.218-7.218,7.226-18.912,0.009-26.129
		L282.123,256l75.91-75.91c7.217-7.217,7.223-18.912,0.006-26.129c-7.217-7.217-18.911-7.209-26.127,0.007l-75.91,75.91
		l-75.911-75.911c-7.217-7.217-18.911-7.209-26.129,0.009c-7.209,7.209-7.217,18.903,0,26.12l75.911,75.911l-75.902,75.902
		c-7.218,7.218-7.226,18.912-0.009,26.129C161.178,365.255,172.874,365.249,180.092,358.031z"/>
	<path d="M255.822,506.009C123.93,506.018,13.327,402.318,6.346,269.091C-0.858,131.408,105.289,13.532,242.955,6.327
		c137.743-7.091,255.508,98.962,262.705,236.602c3.023,57.712-14.186,115.058-48.461,161.463
		c-5.705,7.753-16.629,9.398-24.417,3.667c-7.751-5.723-9.397-16.653-3.665-24.415c29.476-39.912,44.272-89.238,41.677-138.89
		C464.608,126.338,363.385,34.991,244.78,41.195C126.339,47.396,35.019,148.807,41.212,267.267
		c6.202,118.425,107.768,209.496,226.004,203.534c42.336-2.22,82.608-16.637,116.446-41.695c7.77-5.731,18.694-4.086,24.424,3.641
		c5.732,7.753,4.104,18.685-3.64,24.424c-39.38,29.152-86.197,45.917-135.395,48.496
		C264.621,505.898,260.208,506.009,255.822,506.009L255.822,506.009z"/>
</g>
</svg>
