<?xml version="1.0" encoding="utf-8"?>
<!-- Generator: Adobe Illustrator 17.0.0, SVG Export Plug-In . SVG Version: 6.00 Build 0)  -->
<!DOCTYPE svg PUBLIC "-//W3C//DTD SVG 1.1//EN" "http://www.w3.org/Graphics/SVG/1.1/DTD/svg11.dtd">
<svg version="1.1" id="Layer_1" xmlns="http://www.w3.org/2000/svg" xmlns:xlink="http://www.w3.org/1999/xlink" x="0px" y="0px"
	 width="512px" height="512px" viewBox="0 0 512 512" enable-background="new 0 0 512 512" xml:space="preserve">
<path d="M72.307,506c-18.957,0-33.926-5.986-46.895-18.956c-24.945-26.937-24.945-65.847,0-92.789l226.486-226.487
	c-11.974-47.891-0.996-88.8,33.926-122.719c36.912-36.918,79.812-47.891,129.702-31.928l6.984,3.989l1.996,1.998
	c3.989,3.989,5.987,8.981,5.987,14.962c0,4.991-1.998,9.982-6.983,14.968l-68.847,68.845c-26.936,24.94,14.968,66.85,39.912,39.907
	l65.847-65.847c0-1,0-1,0.997-1l1.996-1.993c10.98-10.978,20.955-10.978,29.931,0c3.995,2.994,5.987,5.987,6.99,10.973
	c12.968,43.902,0,94.786-32.929,127.71c-36.913,36.918-79.818,46.896-130.704,30.931c-7.979-2.993-12.969-11.974-9.978-19.959
	c2.994-10.972,9.978-13.966,19.959-10.972c36.914,11.974,69.838,3.989,97.775-22.947c21.95-21.95,30.931-47.891,27.937-78.822
	l-54.874,54.874c-23.948,23.948-61.862,23.948-85.804,0c-23.948-23.942-23.948-61.857,0-85.8l54.873-54.88
	c-29.93-2.993-55.871,5.987-77.822,27.938c-27.936,27.937-35.922,59.865-23.947,95.783c1.996,8.981,0,16.959-4.987,21.95l-1,0.997
	L48.358,417.201c-12.97,12.97-12.97,33.925,0,45.899c12.97,12.97,33.925,13.967,46.895,0.998l192.56-193.563
	c7.984-6.983,15.964-6.983,22.948,0c8.98,7.983,8.98,15.969,0,22.952L118.202,487.044C105.231,500.013,90.263,506,72.307,506z"/>
</svg>
