<?xml version="1.0" encoding="utf-8"?>
<!-- Generator: Adobe Illustrator 17.0.0, SVG Export Plug-In . SVG Version: 6.00 Build 0)  -->
<!DOCTYPE svg PUBLIC "-//W3C//DTD SVG 1.1//EN" "http://www.w3.org/Graphics/SVG/1.1/DTD/svg11.dtd">
<svg version="1.1" id="Layer_1" xmlns="http://www.w3.org/2000/svg" xmlns:xlink="http://www.w3.org/1999/xlink" x="0px" y="0px"
	 width="512px" height="512px" viewBox="0 0 512 512" enable-background="new 0 0 512 512" xml:space="preserve">
<path d="M465.371,194.309c-6.831,0-13.263,1.694-18.913,4.672l-78.414-70.604c1.275-3.942,1.972-8.145,1.972-12.512
	c0-22.439-18.19-40.629-40.629-40.629s-40.629,18.19-40.629,40.629c0,9.583,3.326,18.384,8.875,25.331L188.48,355.555
	c-0.65-0.031-1.303-0.05-1.96-0.05c-2.529,0-5.001,0.243-7.402,0.685L81.816,215.817c3.455-5.975,5.443-12.905,5.443-20.304
	c0-22.439-18.19-40.629-40.629-40.629C24.19,154.884,6,173.074,6,195.513s18.19,40.629,40.629,40.629
	c2.79,0,5.514-0.282,8.146-0.818l96.935,139.852c-3.692,6.12-5.819,13.29-5.819,20.958c0,22.439,18.19,40.629,40.629,40.629
	c22.439,0,40.629-18.19,40.629-40.629c0-9.636-3.362-18.484-8.967-25.449L327.28,156.44c0.698,0.036,1.4,0.054,2.107,0.054
	c5.792,0,11.296-1.22,16.282-3.404l80.229,72.227c-0.75,3.086-1.156,6.305-1.156,9.622c0,22.439,18.19,40.629,40.629,40.629
	S506,257.377,506,234.938S487.81,194.309,465.371,194.309z"/>
</svg>
