<?xml version="1.0" encoding="utf-8"?>
<!-- Generator: Adobe Illustrator 17.0.0, SVG Export Plug-In . SVG Version: 6.00 Build 0)  -->
<!DOCTYPE svg PUBLIC "-//W3C//DTD SVG 1.1//EN" "http://www.w3.org/Graphics/SVG/1.1/DTD/svg11.dtd">
<svg version="1.1" id="Layer_1" xmlns="http://www.w3.org/2000/svg" xmlns:xlink="http://www.w3.org/1999/xlink" x="0px" y="0px"
	 width="512px" height="512px" viewBox="0 0 512 512" enable-background="new 0 0 512 512" xml:space="preserve">
<path d="M439.38,494.136c-4.994,0-9.903-1.948-13.575-5.619l-60.754-60.711H176.598c-17.659,0-34.843-7.144-47.142-19.601
	c-7.453-7.544-7.378-19.699,0.169-27.151c7.544-7.45,19.696-7.379,27.149,0.17c5.137,5.2,12.362,8.183,19.824,8.183h196.403
	c5.09,0,9.972,2.02,13.571,5.619l33.605,33.582v-20.001c0-10.604,8.597-19.199,19.199-19.199c15.562,0,28.224-12.703,28.224-28.315
	V183.29c0-15.621-12.662-28.33-28.224-28.33c-10.603,0-19.199-8.597-19.199-19.199s8.597-19.199,19.199-19.199
	c36.736,0,66.623,29.935,66.623,66.729v177.804c0,30.104-20.018,55.615-47.424,63.89v49.953c0,7.764-4.675,14.764-11.85,17.737
	C444.352,493.658,441.855,494.136,439.38,494.136z M72.739,395.439c-2.475,0-4.969-0.478-7.344-1.461
	c-7.175-2.972-11.853-9.973-11.853-17.739v-49.928C26.068,318.048,6,292.529,6,262.411V84.576c0-36.785,29.94-66.712,66.742-66.712
	h262.72c36.802,0,66.745,29.927,66.745,66.712v177.835c0,36.786-29.943,66.714-66.745,66.714H194.375
	c-10.603,0-19.199-8.597-19.199-19.199c0-10.603,8.597-19.199,19.199-19.199h141.086c15.631,0,28.346-12.703,28.346-28.315V84.576
	c0-15.612-12.715-28.313-28.346-28.313H72.742c-15.628,0-28.343,12.701-28.343,28.313v177.835c0,15.612,12.715,28.315,28.343,28.315
	c10.603,0,19.199,8.597,19.199,19.199v19.965l33.543-33.541c7.497-7.5,19.656-7.497,27.152,0c7.497,7.498,7.497,19.654-0.003,27.152
	l-66.317,66.315C82.644,393.489,77.732,395.439,72.739,395.439z"/>
</svg>
