<?xml version="1.0" encoding="utf-8"?>
<!-- Generator: Adobe Illustrator 16.0.4, SVG Export Plug-In . SVG Version: 6.00 Build 0)  -->
<!DOCTYPE svg PUBLIC "-//W3C//DTD SVG 1.1//EN" "http://www.w3.org/Graphics/SVG/1.1/DTD/svg11.dtd">
<svg version="1.1" id="Layer_1" xmlns="http://www.w3.org/2000/svg" xmlns:xlink="http://www.w3.org/1999/xlink" x="0px" y="0px"
	 width="512px" height="512px" viewBox="0 0 512 512" enable-background="new 0 0 512 512" xml:space="preserve">
<path d="M310.227,409.127l-81.486-0.363l0.173-38.707l58.062,0.26c24.449,0.109,24.611-36.56,0.162-36.668l-58.06-0.261l0.05-11.201
	c0.077-17.318,14.408-32.533,31.725-32.455c6.111,0.027,11.197,1.067,16.277,4.146c10.158,6.157,18.318,4.154,23.459-7.024
	c6.164-11.182,4.158-19.335-6.002-24.478c-10.156-6.157-21.348-9.263-33.572-9.318c-36.668-0.164-67.37,31.279-67.539,68.968
	l-0.469,104.915c-0.04,9.168,8.07,18.373,17.238,18.413l99.82,0.447C333.492,445.905,333.654,409.231,310.227,409.127
	L310.227,409.127z M382.584,173.134l-1.016-0.005c-10.916-65.24-62.643-114.366-124.781-114.643
	c-62.135-0.278-115.314,47.357-126.809,112.497c-35.646-1.177-66.266,11.929-91.85,39.32C12.541,237.689,0.17,270.231,0.002,307.922
	c-0.168,37.684,11.916,69.316,36.237,96.926c25.348,26.598,54.827,39.976,90.478,40.134c22.41,0.101,22.574-36.571,0.164-36.672
	c-51.949-0.231-92.485-46.251-92.244-100.232c0.241-53.99,41.187-99.644,93.135-99.412c6.113,0.027,10.186,0.046,13.237,1.076
	l3.052,1.036l3.056,0.014c11.188,3.105,22.374,8.246,31.514,14.399c9.137,7.17,17.288,6.191,24.466-4.985
	c5.133-8.125,3.146-20.357-4.976-25.484c-9.136-7.175-20.322-12.315-33.541-17.469c7.343-47.839,46.206-82.301,92.042-82.096
	c48.892,0.218,90.47,42.169,91.255,95.139l-0.021,5.095l1.012,1.021c-1.072,12.22-3.152,21.379-4.191,26.465
	c-3.111,12.211,0.926,20.376,12.115,23.482c11.193,3.106,18.342-0.936,21.451-13.147c1.041-5.085,3.111-12.21,4.178-23.409
	c51.951,0.232,92.49,46.251,92.248,100.241c-0.24,53.981-41.189,99.636-93.139,99.403l-23.428-0.104
	c-9.168-0.041-17.355,9.09-17.396,18.259c-0.049,11.203,8.061,19.391,17.229,19.432l23.428,0.104
	c35.648,0.158,65.25-12.95,89.816-39.324c25.584-27.392,37.953-59.932,38.121-97.617c0.17-37.691-11.916-69.323-37.258-95.92
	C447.717,186.666,418.236,173.293,382.584,173.134z"/>
</svg>
