<?xml version="1.0" encoding="utf-8"?>
<!-- Generator: Adobe Illustrator 19.2.0, SVG Export Plug-In . SVG Version: 6.00 Build 0)  -->
<svg version="1.1" id="Layer_1" xmlns="http://www.w3.org/2000/svg" xmlns:xlink="http://www.w3.org/1999/xlink" x="0px" y="0px"
	 viewBox="0 0 512 512" style="enable-background:new 0 0 512 512;" xml:space="preserve">
<g>
	<path d="M488.9,202.6c-0.1-0.7-0.3-1.4-0.5-2.1C464.3,89.2,369.3,6,256,6C153.3,6,65.6,74.3,32.1,170.1c-0.2,0.4-0.3,0.8-0.4,1.3
		c-9.1,26.5-14.1,55-14.1,84.7v250h476.8V256C494.4,237.7,492.5,219.8,488.9,202.6z M256,34.2c95.8,0,176.7,68,201.9,160.6
		c-28,8-57.1,9.1-92.5,3.8C297.8,188.4,238.7,147.7,198.9,84c-4.1-6.6-12.9-8.7-19.5-4.5c-6.6,4.1-8.7,12.9-4.5,19.5
		c4.5,7.3,9.3,14.3,14.3,21c-5,4.3-10.4,8.3-17.3,13c-35.2,23.6-69.6,33.5-107,30.7C98.3,87.5,171.3,34.2,256,34.2z M45.9,477.6
		V373.9c22.7,44.2,57.7,80.4,100.1,103.7L45.9,477.6L45.9,477.6z M466.1,477.6H366c42.5-23.3,77.5-59.5,100.1-103.7V477.6z
		 M256,477.6c-115.9,0-210.1-99.5-210.1-221.7c0-22.5,3.2-44.3,9.2-64.8c7.3,0.8,14.6,1.3,21.7,1.3c38.4,0,75-11.9,110.9-36
		c7.6-5.1,13.8-9.7,19.5-14.6c41.5,46.2,94.8,75.8,154,84.7c15.6,2.4,30.3,3.6,44.4,3.6c20.5,0,39.6-2.5,58.1-7.6
		c1.6,10.9,2.4,22,2.4,33.4C466.1,378.2,371.9,477.6,256,477.6z"/>
	<path d="M312.3,369.4c-16.6,15.1-36.1,23.1-56.3,23.1s-39.7-8-56.3-23c-5.8-5.3-14.7-4.8-20,1s-4.8,14.7,1,20
		c21.9,19.9,47.9,30.4,75.3,30.4s53.5-10.5,75.3-30.4c5.8-5.3,6.2-14.2,1-20C327.1,364.5,318.1,364.1,312.3,369.4z"/>
	<path d="M200.9,284.9c2.4,5.1,7.5,8,12.8,8c2.1,0,4.2-0.5,6.1-1.4c7-3.4,10-11.9,6.6-18.9c-9-18.7-28.3-30.8-49-30.8
		c-20.8,0-40,12.1-49,30.8c-3.4,7-0.5,15.5,6.6,18.9c7,3.4,15.5,0.4,18.9-6.6c4.4-9.1,13.4-14.8,23.5-14.8
		C187.5,270.1,196.5,275.8,200.9,284.9z"/>
	<path d="M334.7,241.9c-20.8,0-40,12.1-49,30.8c-3.4,7-0.5,15.5,6.6,18.9c7,3.4,15.5,0.4,18.9-6.6c4.4-9.1,13.4-14.8,23.5-14.8
		s19.1,5.7,23.5,14.8c2.4,5.1,7.5,8,12.8,8c2.1,0,4.2-0.5,6.1-1.4c7-3.4,10-11.9,6.6-18.9C374.7,254,355.4,241.9,334.7,241.9z"/>
</g>
</svg>
