<?xml version="1.0" encoding="utf-8"?>
<!-- Generator: Adobe Illustrator 17.0.0, SVG Export Plug-In . SVG Version: 6.00 Build 0)  -->
<!DOCTYPE svg PUBLIC "-//W3C//DTD SVG 1.1//EN" "http://www.w3.org/Graphics/SVG/1.1/DTD/svg11.dtd">
<svg version="1.1" id="Layer_1" xmlns="http://www.w3.org/2000/svg" xmlns:xlink="http://www.w3.org/1999/xlink" x="0px" y="0px"
	 width="512px" height="512px" viewBox="0 0 512 512" enable-background="new 0 0 512 512" xml:space="preserve">
<g>
	<path d="M223.795,378.25c0,15.659,12.717,28.394,28.359,28.394c15.659,0,28.394-12.735,28.394-28.394
		c0-15.641-12.735-28.358-28.394-28.358C236.513,349.892,223.795,362.609,223.795,378.25z"/>
	<path d="M333.99,187.19c0-45.128-36.708-81.835-81.835-81.835s-81.835,36.708-81.835,81.835c0,9.828,7.961,17.791,17.791,17.791
		c9.828,0,17.79-7.962,17.79-17.791c0-25.505,20.75-46.255,46.255-46.255s46.255,20.75,46.255,46.255
		c0,21.137-20.714,37.642-40.389,46.184c-14.162,5.108-23.656,18.583-23.656,33.679v38.663c0,9.828,7.962,17.791,17.791,17.791
		s17.791-7.962,17.791-17.791l0.123-38.857c0.37-0.123,0.722-0.264,1.092-0.422C310.492,249.738,333.99,220.111,333.99,187.19z"/>
	<path d="M256,6C118.148,6,6,118.148,6,256s112.148,250,250,250c51.736,0,101.387-15.674,143.582-45.312
		c9.038-6.348,11.218-18.828,4.868-27.861c-6.353-9.043-18.826-11.201-27.861-4.873C341.161,452.846,299.462,466,256,466
		c-115.793,0-210-94.209-210-210S140.207,46,256,46s210,94.209,210,210c0,42.549-12.656,83.525-36.597,118.496
		c-6.24,9.111-3.911,21.562,5.203,27.803c9.111,6.23,21.56,3.916,27.8-5.205C490.927,355.443,506,306.654,506,256
		C506,118.148,393.852,6,256,6z"/>
</g>
</svg>
