<?xml version="1.0" encoding="utf-8"?>
<!-- Generator: Adobe Illustrator 17.0.0, SVG Export Plug-In . SVG Version: 6.00 Build 0)  -->
<!DOCTYPE svg PUBLIC "-//W3C//DTD SVG 1.1//EN" "http://www.w3.org/Graphics/SVG/1.1/DTD/svg11.dtd">
<svg version="1.1" id="Layer_1" xmlns="http://www.w3.org/2000/svg" xmlns:xlink="http://www.w3.org/1999/xlink" x="0px" y="0px"
	 width="512px" height="512px" viewBox="0 0 512 512" enable-background="new 0 0 512 512" xml:space="preserve">
<path d="M500.821,263.874L256.002,19.046L11.179,263.874c-6.905,6.905-6.905,18.091,0,24.996c6.905,6.905,18.091,6.905,24.996,0
	l37.869-37.868v241.952h147.635V357.29c0-18.93,15.398-34.328,34.323-34.328c18.925,0,34.323,15.398,34.323,34.328v135.665h147.63
	V251.001l37.869,37.869c3.453,3.453,7.97,5.179,12.498,5.179s9.046-1.726,12.498-5.179
	C507.726,281.965,507.726,270.779,500.821,263.874z M402.602,457.6h-76.922V357.29c0-38.422-31.26-69.682-69.677-69.682
	c-38.422,0-69.677,31.26-69.677,69.682V457.6h-76.927V215.649L256.002,69.048l146.599,146.599V457.6z"/>
</svg>
