<?xml version="1.0" encoding="utf-8"?>
<!-- Generator: Adobe Illustrator 17.0.0, SVG Export Plug-In . SVG Version: 6.00 Build 0)  -->
<!DOCTYPE svg PUBLIC "-//W3C//DTD SVG 1.1//EN" "http://www.w3.org/Graphics/SVG/1.1/DTD/svg11.dtd">
<svg version="1.1" id="Layer_1" xmlns="http://www.w3.org/2000/svg" xmlns:xlink="http://www.w3.org/1999/xlink" x="0px" y="0px"
	 width="512px" height="512px" viewBox="0 0 512 512" enable-background="new 0 0 512 512" xml:space="preserve">
<path d="M435.829,443.651H76.153C37.47,443.651,6,412.183,6,373.504V138.751c0-38.687,31.47-70.164,70.153-70.164h299.849
	c9.821,0,17.78,7.964,17.78,17.783s-7.96,17.783-17.78,17.783H76.153c-19.074,0-34.592,15.518-34.592,34.599v234.754
	c0,19.067,15.518,34.581,34.592,34.581h359.676c19.082,0,34.61-15.514,34.61-34.581V138.585c0-19.067-15.527-34.581-34.61-34.581
	c-9.135,0-16.783-6.923-17.693-16.015c-0.978-9.771,6.144-18.571,15.915-19.546c1.319-0.135,2.619-0.122,3.886,0.026
	C475.66,69.588,506,100.612,506,138.585v234.919C506,412.183,474.521,443.651,435.829,443.651z M310.672,378.607
	c-67.562,0-122.526-55.02-122.526-122.65c0-67.56,54.963-122.528,122.526-122.528c67.571,0,122.543,54.968,122.543,122.528
	C433.215,323.587,378.243,378.607,310.672,378.607z M310.672,168.995c-47.953,0-86.965,39.01-86.965,86.963
	c0,48.018,39.012,87.084,86.965,87.084c47.962,0,86.982-39.066,86.982-87.084C397.654,208.004,358.633,168.995,310.672,168.995z
	 M112.38,222.308c-25.228,0-45.752-20.526-45.752-45.754c0-25.224,20.524-45.745,45.752-45.745
	c25.248,0,45.787,20.521,45.787,45.745C158.167,201.782,137.628,222.308,112.38,222.308z M112.38,166.374
	c-5.715,0-10.191,4.472-10.191,10.18c0,5.617,4.572,10.189,10.191,10.189c5.639,0,10.226-4.572,10.226-10.189
	C122.606,170.941,118.019,166.374,112.38,166.374z"/>
</svg>
