<?xml version="1.0" encoding="utf-8"?>
<!-- Generator: Adobe Illustrator 19.2.0, SVG Export Plug-In . SVG Version: 6.00 Build 0)  -->
<svg version="1.1" id="Layer_1" xmlns="http://www.w3.org/2000/svg" xmlns:xlink="http://www.w3.org/1999/xlink" x="0px" y="0px"
	 viewBox="0 0 512 512" style="enable-background:new 0 0 512 512;" xml:space="preserve">
<g>
	<path d="M291.1,273.9c-15.2-16.2-43.6-20.3-60.9-3c-9.1,8.1-14.2,18.3-14.2,30.4c-0.9,11.2,2.5,21.6,10.1,31.1v84.6
		c0,8.1,4.1,12.2,12.2,12.2l42.6,0c7.1,0,11.2-4.1,11.2-12.2v-84.4C306.3,315.3,305.9,290.7,291.1,273.9z M249.5,404.7v-77.1
		c0-5.7-2-9.4-5.6-11.1c-2.7-4.6-4.5-8.5-4.5-13.3c0-11.2,9.1-20.3,21.3-19.3c5.1,0,9.1,2,13.2,6.1c8.1,9.1,8.1,17.2,1,26.4
		c-0.4,0-0.7,0.2-0.9,0.5c-2.7,1.4-4.3,3.9-4.9,7.3c-0.6,1.9-0.8,3.8-0.3,5.8v74.7L249.5,404.7L249.5,404.7z"/>
	<path d="M381.4,184V79.1c0-43.6-34.5-77.1-76.1-77.1h-94.3c-41.6,0-76.1,33.5-76.1,77.1v105.1c-30,8.5-51.7,36.5-51.7,69.3v183.6
		c0,39.6,31.4,72,71,72h209c39.6,0,71-32.5,71-72V253.6C434.1,220.3,411.9,192.1,381.4,184z M170.4,79.1c0-23.3,17.2-40.6,40.6-40.6
		h94.3c21.3,0,40.6,19.3,40.6,40.6v102.5H170.4V79.1z M398.6,437.2c0,20.3-16.2,36.5-35.5,36.5l-209-1c-19.3,0-35.5-16.2-35.5-35.5
		V253.6c0-20.3,16.2-36.5,36.5-36.5v0h208c19.3,0,35.5,16.2,35.5,36.5V437.2z"/>
</g>
</svg>
