<?xml version="1.0" encoding="utf-8"?>
<!-- Generator: Adobe Illustrator 16.0.4, SVG Export Plug-In . SVG Version: 6.00 Build 0)  -->
<!DOCTYPE svg PUBLIC "-//W3C//DTD SVG 1.1//EN" "http://www.w3.org/Graphics/SVG/1.1/DTD/svg11.dtd">
<svg version="1.1" id="Layer_1" xmlns="http://www.w3.org/2000/svg" xmlns:xlink="http://www.w3.org/1999/xlink" x="0px" y="0px"
	 width="512px" height="512px" viewBox="0 0 512 512" enable-background="new 0 0 512 512" xml:space="preserve">
<path d="M254.794,510.33c-63.225,0-118.943-20.354-167.163-62.149C35.127,402.107,6.192,345.312,0.838,275.663
	c-5.36-69.648,14.999-131.797,61.079-184.307c25.714-31.075,58.934-54.65,100.723-70.72c10.715-3.215,18.215,0,23.575,9.64
	c3.215,10.72,0,18.22-10.715,23.575c-33.219,12.86-62.149,33.22-86.799,60.009c-39.644,46.074-57.858,98.584-53.573,158.589
	c5.354,60.008,30.004,109.298,76.079,148.947c46.074,39.645,98.584,57.859,158.587,53.574c61.08-4.285,111.445-28.93,151.09-75.01
	c39.648-45.004,56.793-97.508,52.51-158.587c-4.291-61.08-28.936-110.369-75.01-148.943c-18.221-16.075-37.504-27.865-58.934-36.434
	c-10.721-5.361-13.936-12.86-9.646-23.576c5.355-10.714,12.859-13.929,23.576-9.645c26.783,11.791,50.357,25.72,68.578,42.864
	c53.574,46.075,82.51,103.939,86.795,173.588c5.359,69.654-15.002,130.733-61.08,183.237
	c-46.074,52.505-105.01,82.51-174.662,87.864H254.794z M238.72,240.304V17.421c0-22.504,36.435-22.504,36.435,0v222.883
	C275.154,262.804,238.72,262.804,238.72,240.304z"/>
</svg>
