<?xml version="1.0" encoding="utf-8"?>
<!-- Generator: Adobe Illustrator 17.0.0, SVG Export Plug-In . SVG Version: 6.00 Build 0)  -->
<!DOCTYPE svg PUBLIC "-//W3C//DTD SVG 1.1//EN" "http://www.w3.org/Graphics/SVG/1.1/DTD/svg11.dtd">
<svg version="1.1" id="Layer_1" xmlns="http://www.w3.org/2000/svg" xmlns:xlink="http://www.w3.org/1999/xlink" x="0px" y="0px"
	 width="512px" height="512px" viewBox="0 0 512 512" enable-background="new 0 0 512 512" xml:space="preserve">
<g>
	<path d="M256,6C118.148,6,6,118.148,6,256s112.148,250,250,250s250-112.148,250-250S393.852,6,256,6z M256,479.214
		C132.918,479.214,32.786,379.082,32.786,256S132.918,32.786,256,32.786S479.214,132.918,479.214,256S379.082,479.214,256,479.214z"
		/>
	<path d="M364.694,240.043h-92.737H147.306c-8.816,0-15.955,7.148-15.955,15.966c0,8.807,7.139,15.955,15.955,15.955h124.651h92.737
		c8.816,0,15.955-7.148,15.955-15.955C380.649,247.191,373.51,240.043,364.694,240.043z"/>
</g>
</svg>
