<?xml version="1.0" encoding="utf-8"?>
<!-- Generator: Adobe Illustrator 17.0.0, SVG Export Plug-In . SVG Version: 6.00 Build 0)  -->
<!DOCTYPE svg PUBLIC "-//W3C//DTD SVG 1.1//EN" "http://www.w3.org/Graphics/SVG/1.1/DTD/svg11.dtd">
<svg version="1.1" id="Layer_1" xmlns="http://www.w3.org/2000/svg" xmlns:xlink="http://www.w3.org/1999/xlink" x="0px" y="0px"
	 width="512px" height="512px" viewBox="0 0 512 512" enable-background="new 0 0 512 512" xml:space="preserve">
<path d="M255.538,506c-59.7,0.003-116.749-21.246-162.303-60.791C-10.211,355.591-21.451,198.432,68.193,94.891
	c26.919-31.063,59.968-54.288,98.234-69.039c10.482-4.04,22.249,1.178,26.29,11.659c4.038,10.479-1.182,22.249-11.661,26.289
	c-31.987,12.331-59.614,31.752-82.121,57.721C23.97,208.105,33.367,339.53,119.883,414.484
	c41.923,36.392,95.457,54.249,150.794,50.303c55.354-3.95,105.856-29.253,142.195-71.245
	c36.366-41.898,54.202-95.423,50.247-150.741c-3.959-55.326-29.243-105.85-71.199-142.261c-16.632-14.35-35.459-26.052-55.91-34.74
	c-10.337-4.392-15.159-16.331-10.767-26.668c4.392-10.337,16.324-15.156,26.668-10.767c24.337,10.338,46.752,24.275,66.624,41.421
	c50.194,43.561,80.42,103.963,85.15,170.114c4.733,66.166-16.602,130.19-60.077,180.278
	c-43.439,50.194-103.831,80.453-170.034,85.178C267.543,505.786,261.522,506,255.538,506z M258.031,261.361
	c-11.23,0-20.336-9.104-20.336-20.336V26.336C237.695,15.105,246.8,6,258.031,6c11.23,0,20.336,9.105,20.336,20.336v214.69
	C278.366,252.257,269.261,261.361,258.031,261.361z"/>
</svg>
