<?xml version="1.0" encoding="utf-8"?>
<!-- Generator: Adobe Illustrator 16.0.4, SVG Export Plug-In . SVG Version: 6.00 Build 0)  -->
<!DOCTYPE svg PUBLIC "-//W3C//DTD SVG 1.1//EN" "http://www.w3.org/Graphics/SVG/1.1/DTD/svg11.dtd">
<svg version="1.1" id="Layer_1" xmlns="http://www.w3.org/2000/svg" xmlns:xlink="http://www.w3.org/1999/xlink" x="0px" y="0px"
	 width="512px" height="512px" viewBox="0 0 512 512" enable-background="new 0 0 512 512" xml:space="preserve">
<path d="M146.691,338.678l-26.083-26.084c-9.385-9.392-9.385-17.734,0-27.126c7.308-8.35,19.824-8.35,27.13,0l27.126,26.084
	c13.562,15.646,40.688,15.646,54.25,0L364.741,175.92c9.391-9.391,17.739-9.391,27.131,0c8.344,7.302,8.344,19.823,0,27.125
	L257.281,338.678C227.026,368.934,176.947,368.934,146.691,338.678L146.691,338.678z M256.24,510.82
	c-65.73,0-122.07-21.906-170.06-65.725C34.012,399.189,5.845,340.761,1.673,269.816c-3.13-69.901,17.734-131.455,64.684-183.623
	c46.948-53.208,106.418-81.376,176.32-84.506c70.944-3.13,132.501,18.776,183.623,65.725
	c52.168,45.907,80.335,104.335,84.507,175.279c3.13,61.553-13.563,115.81-50.08,164.841c-7.302,9.392-14.604,10.433-23.995,3.13
	c-10.432-7.303-11.474-14.604-4.171-23.994c30.255-40.688,44.859-88.685,42.776-141.888c-3.13-59.47-27.125-109.548-71.991-151.284
	c-43.818-39.646-97.026-58.423-158.58-56.339c-60.517,3.13-111.637,27.125-152.325,71.991
	c-40.688,44.86-58.428,98.07-55.298,158.581c3.13,60.517,27.125,110.595,71.991,151.284c43.818,39.646,97.027,58.422,158.581,56.338
	c42.776-2.088,82.424-16.692,118.938-42.775c9.392-7.303,17.735-6.261,25.043,4.171c7.302,9.391,5.213,17.734-4.178,23.995
	c-40.688,30.257-86.595,46.948-137.715,50.079H256.24z"/>
</svg>
