<?xml version="1.0" encoding="utf-8"?>
<!-- Generator: Adobe Illustrator 16.0.4, SVG Export Plug-In . SVG Version: 6.00 Build 0)  -->
<!DOCTYPE svg PUBLIC "-//W3C//DTD SVG 1.1//EN" "http://www.w3.org/Graphics/SVG/1.1/DTD/svg11.dtd">
<svg version="1.1" id="Layer_1" xmlns="http://www.w3.org/2000/svg" xmlns:xlink="http://www.w3.org/1999/xlink" x="0px" y="0px"
	 width="512px" height="512px" viewBox="0 0 512 512" enable-background="new 0 0 512 512" xml:space="preserve">
<path d="M255.327,510.441h-13.257c-49.968-3.059-95.858-19.376-135.633-47.926c-10.197-7.143-11.215-16.316-4.078-26.519
	c7.137-11.215,16.316-12.233,27.537-5.096c32.633,24.472,70.362,37.729,114.216,39.77c59.147,3.061,111.155-14.274,155.004-54.045
	c44.872-39.775,68.325-89.743,71.386-149.908c3.06-60.17-15.299-112.179-55.069-156.028
	c-39.771-43.853-88.721-67.307-148.886-70.367c-60.169-3.059-112.178,15.3-156.027,55.07c-43.854,39.771-67.308,88.72-70.367,148.89
	c-3.06,49.968,9.179,95.858,38.752,135.628c7.137,11.221,6.119,20.394-5.101,27.536c-10.197,7.138-19.371,6.119-26.514-5.101
	C12.62,354.415-2.678,301.388,0.382,242.24C4.459,171.873,33.015,113.75,85.023,66.837c52.009-47.926,113.198-69.344,183.56-66.285
	c70.368,4.079,129.514,32.634,176.423,84.643c46.913,50.991,68.325,112.175,65.265,183.56
	c-3.06,68.326-29.573,125.437-79.54,172.344C380.761,486.988,322.634,510.441,255.327,510.441L255.327,510.441z M213.515,420.704
	c-1.019,0-4.078-1.022-8.156-2.041c-7.137-3.061-11.22-9.18-11.22-17.336V110.689c0-9.178,4.083-15.297,11.22-18.357
	c9.179-4.077,16.317-3.06,21.413,4.078l145.831,144.813c7.136,9.178,7.136,19.376,0,28.55L226.771,414.584
	C223.711,418.663,219.634,420.704,213.515,420.704L213.515,420.704z M232.89,157.599v195.798l97.899-97.899L232.89,157.599z"/>
</svg>
