<?xml version="1.0" encoding="utf-8"?>
<!-- Generator: Adobe Illustrator 17.0.0, SVG Export Plug-In . SVG Version: 6.00 Build 0)  -->
<!DOCTYPE svg PUBLIC "-//W3C//DTD SVG 1.1//EN" "http://www.w3.org/Graphics/SVG/1.1/DTD/svg11.dtd">
<svg version="1.1" id="Layer_1" xmlns="http://www.w3.org/2000/svg" xmlns:xlink="http://www.w3.org/1999/xlink" x="0px" y="0px"
	 width="512px" height="512px" viewBox="0 0 512 512" enable-background="new 0 0 512 512" xml:space="preserve">
<g>
	<path d="M256,506C118.148,506,6,393.852,6,256S118.148,6,256,6s250,112.148,250,250S393.852,506,256,506z M256,32.786
		C132.918,32.786,32.786,132.918,32.786,256S132.918,479.214,256,479.214S479.214,379.082,479.214,256S379.082,32.786,256,32.786z"
		/>
	<path d="M271.957,364.692l0-92.728l92.737,0c8.816,0,15.955-7.148,15.955-15.955c0-8.818-7.139-15.966-15.955-15.966l-92.737,0
		l0-92.737c0-8.816-7.141-15.964-15.957-15.964c-8.816,0-15.955,7.148-15.955,15.964l0,92.737l-92.739,0
		c-8.816,0-15.955,7.148-15.955,15.966c0,8.807,7.139,15.955,15.955,15.955l92.739,0l0,92.728c0,8.818,7.139,15.966,15.955,15.966
		C264.817,380.658,271.957,373.511,271.957,364.692z"/>
</g>
</svg>
