<?xml version="1.0" encoding="utf-8"?>
<!-- Generator: Adobe Illustrator 16.0.4, SVG Export Plug-In . SVG Version: 6.00 Build 0)  -->
<!DOCTYPE svg PUBLIC "-//W3C//DTD SVG 1.1//EN" "http://www.w3.org/Graphics/SVG/1.1/DTD/svg11.dtd">
<svg version="1.1" id="Layer_1" xmlns="http://www.w3.org/2000/svg" xmlns:xlink="http://www.w3.org/1999/xlink" x="0px" y="0px"
	 width="512px" height="512px" viewBox="0 0 512 512" enable-background="new 0 0 512 512" xml:space="preserve">
<path d="M363.097,509.224H154.123c-39.563,0-71.013-32.463-71.013-72.025V253.586c0-39.567,31.449-72.03,71.013-72.03h1.012h207.962
	c39.562,0,71.013,32.462,71.013,72.03v183.612C434.109,476.761,402.659,509.224,363.097,509.224L363.097,509.224z M155.135,217.062
	c-20.288,0-36.519,16.231-36.519,36.523v183.612c0,19.275,16.231,35.506,35.506,35.506l208.974,1.013
	c19.274,0,35.506-16.231,35.506-36.519V253.586c0-20.292-16.231-36.523-35.506-36.523H155.135z M152.091,217.062
	c-11.157,0-17.244-6.088-17.244-18.258V79.1c0-43.624,34.488-77.1,76.082-77.1h94.344c41.593,0,76.087,33.476,76.087,77.1v65.938
	c0,9.131-8.119,18.261-17.249,18.261c-11.157,0-18.258-9.13-18.258-18.261V79.1c0-21.306-19.274-40.582-40.58-40.582h-94.344
	c-23.332,0-40.576,17.25-40.576,40.582v119.705C170.353,209.962,161.222,217.062,152.091,217.062L152.091,217.062z M280.928,339.811
	c-2.031,0-5.074-1.012-9.131-4.056c-5.075-6.088-4.057-12.175,1.013-17.244c1.018-1.018,1.018-2.031,2.03-2.031
	c7.101-9.131,7.101-17.243-1.013-26.375c-4.062-4.056-8.117-6.087-13.187-6.087c-12.176-1.013-21.306,8.113-21.306,19.274
	c0,5.07,2.03,9.132,5.074,14.201c6.087,6.087,6.087,12.174,1.013,17.244c-6.087,5.073-11.162,6.087-15.218,2.031l-2.026-2.031
	c-9.131-10.144-13.188-21.3-12.175-33.475c0-12.176,5.069-22.319,14.201-30.433c17.25-17.244,45.65-13.187,60.868,3.043
	c15.218,17.244,15.218,42.606,0,59.852l-2.031,2.03C287.016,338.799,283.972,339.811,280.928,339.811L280.928,339.811z
	 M280.928,429.085l-42.606,0.001c-8.118,0-12.175-4.062-12.175-12.175v-89.274c0-8.113,4.057-12.17,12.175-12.17
	c7.101,0,11.157,4.057,11.157,12.17v77.099h19.275v-77.099c0-8.113,4.056-12.17,12.174-12.17c7.1,0,11.156,4.057,11.156,12.17
	v89.274C292.084,425.023,288.027,429.085,280.928,429.085z"/>
</svg>
