<?xml version="1.0" encoding="utf-8"?>
<!-- Generator: Adobe Illustrator 17.0.0, SVG Export Plug-In . SVG Version: 6.00 Build 0)  -->
<!DOCTYPE svg PUBLIC "-//W3C//DTD SVG 1.1//EN" "http://www.w3.org/Graphics/SVG/1.1/DTD/svg11.dtd">
<svg version="1.1" id="Layer_1" xmlns="http://www.w3.org/2000/svg" xmlns:xlink="http://www.w3.org/1999/xlink" x="0px" y="0px"
	 width="512px" height="512px" viewBox="0 0 512 512" enable-background="new 0 0 512 512" xml:space="preserve">
<g>
	<g>
		<path d="M256,506c-14.607,0-26.827-1.571-27.341-1.637c-14.766-1.924-26.338-15.097-26.338-29.99l-0.01-19.562
			c0-2.892-3.015-7.042-5.761-7.935l-0.894-0.328l-32.758-13.483c-2.546-1.311-7.543-0.537-9.56,1.483l-13.798,13.797
			c-10.723,10.727-28.225,11.484-39.841,1.71l-0.809-0.742l-36.961-37.029c-9.769-11.611-9.021-29.113,1.712-39.845l13.833-13.835
			c2.002-2.004,2.761-6.965,1.448-9.477l-0.494-1.052l-13.429-32.692c-0.864-2.72-4.947-5.707-7.803-5.707H37.624
			c-14.886,0-28.06-11.565-29.987-26.33C7.567,282.826,6,270.606,6,256c0-14.605,1.567-26.824,1.632-27.337
			c1.932-14.772,15.106-26.338,29.992-26.339l19.569-0.002c2.85,0,6.929-2.985,7.793-5.703l0.359-0.99l13.314-32.284
			c1.313-2.518,0.544-7.485-1.463-9.489l-13.863-13.824c-10.738-10.715-11.517-28.214-1.772-39.839l0.749-0.817l37.41-37.433
			c11.601-9.775,29.108-9.041,39.846,1.675l13.858,13.826c2.012,2.009,6.989,2.757,9.505,1.446l1.053-0.489l32.633-13.402
			c2.721-0.865,5.711-4.951,5.711-7.806l-0.005-19.561c0-14.894,11.566-28.068,26.333-29.993C229.168,7.571,241.393,6,256,6
			c14.612,0,26.827,1.571,27.341,1.638c14.761,1.924,26.333,15.095,26.343,29.983l0.015,19.569c0,2.862,2.995,6.953,5.721,7.82
			l0.993,0.363l32.683,13.532c2.511,1.312,7.473,0.557,9.48-1.448l0.005-0.001l13.843-13.831
			c10.728-10.72,28.235-11.471,39.841-1.704l0.809,0.741l36.986,37.042c9.769,11.611,9.016,29.112-1.717,39.84l-13.843,13.825
			c-2.002,1.999-2.756,6.953-1.448,9.462l0.494,1.051l13.448,32.729c0.869,2.724,4.957,5.714,7.812,5.714l19.564,0.001
			c14.896,0.001,28.07,11.57,29.992,26.338C504.428,229.172,506,241.391,506,256c0,14.608-1.572,26.828-1.642,27.342
			c-1.917,14.763-15.091,26.332-29.987,26.332h-19.594c-2.82,0-6.839,2.957-7.673,5.65l-0.364,1.019l-13.289,32.578
			c-1.313,2.437-0.604,7.262,1.358,9.218l13.858,13.829c10.743,10.717,11.517,28.218,1.762,39.842l-0.744,0.812l-37.405,37.434
			c-11.606,9.774-29.098,9.04-39.841-1.68l-13.858-13.828c-2.012-2.007-6.979-2.762-9.495-1.449l-1.053,0.491l-32.648,13.407
			c-2.721,0.866-5.706,4.952-5.706,7.808v19.566c0,14.891-11.566,28.064-26.333,29.99C282.832,504.429,270.607,506,256,506z
			 M204.972,422.743c13.089,4.528,22.898,18.209,22.898,32.061l0.01,19.562c0,2.005,2.097,4.392,4.083,4.651
			c0.105,0.013,11.157,1.423,24.037,1.423s23.937-1.41,24.052-1.425c1.972-0.257,4.068-2.645,4.068-4.644v-19.566
			c0-13.868,9.824-27.5,22.943-31.974l30.771-12.68c12.435-6.142,28.994-3.492,38.803,6.308l13.858,13.828
			c1.188,1.188,3.629,1.359,5.052,0.42l35.498-35.585c0.939-1.429,0.759-3.873-0.429-5.061l-13.858-13.829
			c-9.844-9.824-12.43-26.335-6.17-38.735l12.295-30.326c4.388-13.186,17.986-23.056,31.894-23.056h19.594
			c2.002,0,4.388-2.095,4.643-4.076c0.015-0.109,1.428-11.165,1.428-24.039c0-12.874-1.413-23.93-1.428-24.04
			c-0.255-1.98-2.646-4.076-4.643-4.076l-19.564-0.001c-13.863,0-27.496-9.821-31.974-22.941l-12.73-30.856
			c-6.15-12.429-3.484-28.99,6.33-38.799l13.843-13.825c1.183-1.183,1.358-3.618,0.419-5.041l-35.144-35.138
			c-1.423-0.94-3.874-0.766-5.067,0.424l-13.843,13.828c-9.804,9.805-26.373,12.463-38.798,6.318l-30.756-12.678
			c-13.114-4.474-22.938-18.104-22.948-31.968l-0.015-19.569c0-2.005-2.102-4.397-4.088-4.656
			c-0.105-0.013-11.157-1.423-24.037-1.423s-23.937,1.41-24.052,1.425c-1.972,0.257-4.068,2.645-4.068,4.644l0.005,19.561
			c0,13.873-9.824,27.506-22.948,31.978l-30.761,12.676c-12.425,6.143-28.989,3.486-38.803-6.306l-13.858-13.826
			c-1.198-1.191-3.649-1.356-5.062-0.419l-35.498,35.582c-0.938,1.431-0.759,3.874,0.429,5.063l13.863,13.824
			c9.819,9.798,12.505,26.358,6.38,38.796l-12.47,30.363c-4.458,13.13-18.091,22.96-31.964,22.961l-19.569,0.003
			c-1.997,0-4.388,2.1-4.648,4.085c-0.01,0.096-1.418,11.155-1.418,24.032c0,12.878,1.408,23.938,1.423,24.048
			c0.255,1.97,2.646,4.069,4.643,4.069h19.574c13.868,0,27.501,9.823,31.974,22.943l12.7,30.813
			c6.145,12.425,3.484,28.986-6.32,38.799l-13.838,13.839c-1.188,1.189-1.358,3.63-0.419,5.055l35.124,35.126
			c1.408,0.938,3.854,0.768,5.052-0.422l13.798-13.797c9.794-9.799,26.348-12.491,38.798-6.401L204.972,422.743z"/>
	</g>
	<path d="M256,348.29c-50.883,0-92.278-41.403-92.278-92.285s41.396-92.285,92.278-92.285s92.279,41.403,92.279,92.285
		S306.882,348.29,256,348.29z M256,190.084c-36.352,0-65.926,29.565-65.926,65.922s29.574,65.922,65.926,65.922
		c36.353,0,65.927-29.565,65.927-65.922S292.352,190.084,256,190.084z"/>
</g>
</svg>
