<?xml version="1.0" encoding="utf-8"?>
<!-- Generator: Adobe Illustrator 17.0.0, SVG Export Plug-In . SVG Version: 6.00 Build 0)  -->
<!DOCTYPE svg PUBLIC "-//W3C//DTD SVG 1.1//EN" "http://www.w3.org/Graphics/SVG/1.1/DTD/svg11.dtd">
<svg version="1.1" id="Layer_1" xmlns="http://www.w3.org/2000/svg" xmlns:xlink="http://www.w3.org/1999/xlink" x="0px" y="0px"
	 width="512px" height="512px" viewBox="0 0 512 512" enable-background="new 0 0 512 512" xml:space="preserve">
<path d="M472.512,70.694c0-0.079,0.005-0.154,0.005-0.233c0-0.508-0.115-0.983-0.15-1.482c-0.062-0.896-0.098-1.796-0.269-2.667
	c-0.13-0.667-0.366-1.287-0.556-1.931c-0.206-0.695-0.369-1.403-0.643-2.071c-0.276-0.674-0.647-1.287-0.985-1.925
	c-0.314-0.591-0.589-1.2-0.956-1.76c-0.38-0.579-0.84-1.088-1.273-1.626c-0.438-0.547-0.844-1.115-1.335-1.618
	c-0.459-0.47-0.985-0.86-1.485-1.287c-0.558-0.477-1.088-0.98-1.698-1.401c-0.587-0.406-1.236-0.714-1.864-1.061
	c-0.593-0.328-1.153-0.695-1.782-0.968c-0.823-0.359-1.703-0.591-2.576-0.846c-0.471-0.138-0.901-0.348-1.387-0.455l-0.272-0.06
	c-0.009-0.002-0.018-0.004-0.026-0.006L260.641,6.479c-0.117-0.026-0.233-0.017-0.351-0.041c-0.795-0.163-1.612-0.21-2.429-0.281
	C257.245,6.103,256.628,6,256.018,6c-0.685-0.001-1.376,0.109-2.068,0.176c-0.745,0.073-1.493,0.111-2.219,0.259
	c-0.125,0.025-0.247,0.016-0.372,0.044L56.741,49.299c-0.009,0.002-0.018,0.004-0.026,0.006l-0.272,0.06
	c-0.486,0.107-0.916,0.317-1.387,0.455c-0.873,0.255-1.753,0.487-2.576,0.846c-0.628,0.272-1.186,0.638-1.776,0.964
	c-0.631,0.349-1.283,0.658-1.872,1.066c-0.606,0.419-1.133,0.918-1.689,1.393c-0.502,0.428-1.031,0.821-1.492,1.294
	c-0.49,0.504-0.896,1.071-1.335,1.618c-0.432,0.538-0.893,1.047-1.273,1.626c-0.367,0.56-0.642,1.169-0.956,1.76
	c-0.339,0.637-0.71,1.251-0.985,1.925c-0.272,0.664-0.433,1.366-0.638,2.057c-0.192,0.649-0.43,1.275-0.562,1.948
	c-0.169,0.864-0.205,1.757-0.267,2.647c-0.036,0.504-0.151,0.985-0.151,1.499c0,0.079,0.005,0.154,0.005,0.233
	c0.001,0.044,0.001,0.087,0.003,0.131C39.648,379.866,236.945,495.21,245.348,499.97L256,506l10.652-6.03
	c8.403-4.76,205.7-120.104,205.857-429.145C472.511,70.781,472.512,70.737,472.512,70.694z M256.105,455.433
	C217.957,428.397,89.147,320.029,82.98,87.761L256,49.692l173.024,38.069C422.937,321.847,294.847,428.492,256.105,455.433z"/>
</svg>
