<?xml version="1.0" encoding="utf-8"?>
<!-- Generator: Adobe Illustrator 17.0.0, SVG Export Plug-In . SVG Version: 6.00 Build 0)  -->
<!DOCTYPE svg PUBLIC "-//W3C//DTD SVG 1.1//EN" "http://www.w3.org/Graphics/SVG/1.1/DTD/svg11.dtd">
<svg version="1.1" id="Layer_1" xmlns="http://www.w3.org/2000/svg" xmlns:xlink="http://www.w3.org/1999/xlink" x="0px" y="0px"
	 width="512px" height="512px" viewBox="0 0 512 512" enable-background="new 0 0 512 512" xml:space="preserve">
<path d="M479.55,266.173c0-32.945-21.217-54.784-56.765-58.422c-10.208-1.041-26.237-2.8-44.93-4.835
	c-25.687-2.812-56.382-6.175-83.965-8.987c2.728-10.16,6.223-22.893,9.663-34.644c12.757-43.595,8.239-85.982-13.433-125.999
	c-10.704-19.769-36.972-31.389-58.512-25.944c-19.602,4.966-31.299,21.959-31.299,45.45c0,24.341-1.807,36.846-2.507,40.783
	c-4.254,8.173-21.331,40.4-41.782,71.263l-2.639,3.997c-13.768,20.846-20.679,31.317-40.933,39.108
	c-22.037,8.484-33.645,8.544-56.735,8.389l-6.109-0.012c-9.478,0-17.154,7.683-17.154,17.16s7.677,17.16,17.154,17.16h6.019
	c24.753,0.156,41.118,0.108,69.138-10.674c30.521-11.727,42.315-29.606,57.255-52.235l2.603-3.937
	c24.664-37.217,43.966-75.032,44.78-76.624l1.286-3.375c0.407-1.508,3.931-15.808,3.931-51.003c0-10.818,4.075-11.847,5.415-12.194
	c6.57-1.616,16.598,2.908,19.919,9.035c17.448,32.215,20.942,64.932,10.668,100.007c-7.378,25.226-14.994,54.784-15.066,55.083
	l-4.996,19.41l19.949,1.939c31.79,3.087,71.61,7.443,103.615,10.95c18.8,2.058,34.925,3.817,45.181,4.859
	c22.988,2.357,25.938,14.217,25.938,24.293c0,9.741-5.804,18.501-14.785,22.306c-1.58,0.666-2.944,1.599-4.2,2.638
	c-0.287,0.228-0.646,0.296-0.921,0.545c-0.197,0.179-0.263,0.431-0.455,0.616c-0.993,1.02-1.807,2.179-2.513,3.397
	c-0.915,1.522-1.508,3.102-1.909,4.792c-0.054,0.233-0.126,0.458-0.174,0.693c-0.993,5.117,0.054,10.565,3.817,14.735
	c4.021,4.452,6.235,10.208,6.235,16.215c0,10.543-4.081,22.45-13.199,25.274c-0.443,0.137-0.832,0.361-1.251,0.53
	c-0.299,0.119-0.58,0.234-0.88,0.371c-1.843,0.857-3.47,2.003-4.853,3.386c-0.108,0.106-0.251,0.14-0.359,0.249
	c-0.09,0.098-0.114,0.23-0.203,0.329c-1.364,1.492-2.429,3.197-3.189,5.055c-0.102,0.248-0.209,0.476-0.299,0.728
	c-0.646,1.816-0.969,3.737-0.969,5.71c0,0.258-0.012,0.501,0,0.759c0.06,1.444,0.239,2.896,0.688,4.341
	c0.108,0.343,0.341,0.6,0.461,0.931c0.263,0.696,0.634,1.313,0.987,1.977c0.688,1.277,1.472,2.428,2.423,3.466
	c0.269,0.297,0.377,0.681,0.67,0.962c2.555,2.441,3.68,4.619,3.68,15.246c0,7.985-4.99,16.11-8.383,17.563
	c-2.573,0.589-5.056,1.592-7.174,3.427c-6.295,5.426-7.533,14.075-3.644,20.99c0.449,0.886,0.85,1.788,1.436,2.565
	c0.084,0.102,0.096,0.23,0.185,0.331c1.191,2.058,2.136,8.377,1.035,11.488c-2.89,8.209-7.443,14.959-34.028,13.702
	c-9.143-0.407-22.396-0.718-37.283-1.065c-25.801-0.586-57.914-1.328-80.208-2.98c-31.401-2.322-52.235-9.597-69.115-23.862
	c-0.018-0.012-7.593-7.001-11.973-11.165c-3.973-3.77-6.827-6.953-9.208-9.609c-11.53-12.805-19.273-18.429-45.013-18.429H49.605
	c-9.478,0-17.154,7.683-17.154,17.16s7.677,17.16,17.154,17.16h61.067c13.146,0,13.146,0,19.512,7.06
	c2.86,3.183,6.301,6.989,11.063,11.524c4.529,4.296,12.362,11.524,12.906,12.003c23.084,19.542,50.626,29.522,89.297,32.382
	c23.168,1.711,55.76,2.453,81.949,3.064c14.594,0.335,27.578,0.634,36.535,1.029c2.298,0.108,5.182,0.239,8.473,0.239
	c17.926,0,47.826-3.853,59.451-36.798c2.824-8.005,3.022-17.755,1.167-26.632c11.273-10.609,17.328-26.976,17.328-41.148
	c0-6.967-0.407-14.5-2.842-21.954c11.937-10.897,19.135-27.74,19.135-47.358c0-7.802-1.657-15.385-4.601-22.448
	C472.208,298.764,479.55,283.13,479.55,266.173z"/>
</svg>
