<?xml version="1.0" encoding="utf-8"?>
<!-- Generator: Adobe Illustrator 17.0.0, SVG Export Plug-In . SVG Version: 6.00 Build 0)  -->
<!DOCTYPE svg PUBLIC "-//W3C//DTD SVG 1.1//EN" "http://www.w3.org/Graphics/SVG/1.1/DTD/svg11.dtd">
<svg version="1.1" id="Layer_1" xmlns="http://www.w3.org/2000/svg" xmlns:xlink="http://www.w3.org/1999/xlink" x="0px" y="0px"
	 width="512px" height="512px" viewBox="0 0 512 512" enable-background="new 0 0 512 512" xml:space="preserve">
<g>
	<path d="M488.086,271.486c-9.632-1.376-18.533,5.339-19.898,14.958C453.299,391.541,361.861,470.796,255.5,470.796
		c-118.459,0-214.833-96.354-214.833-214.785c0-118.444,96.373-214.807,214.833-214.807c9.721,0,17.602-7.879,17.602-17.602
		C273.102,13.879,265.221,6,255.5,6C117.628,6,5.463,118.154,5.463,256.011C5.463,393.854,117.628,506,255.5,506
		c123.79,0,230.21-92.265,247.545-214.616C504.408,281.756,497.71,272.849,488.086,271.486z"/>
	<path d="M459.973,208.778c0,12.836,10.44,23.28,23.273,23.28c12.842,0,23.291-10.444,23.291-23.28
		c0-12.849-10.448-23.297-23.291-23.297C470.413,185.481,459.973,195.929,459.973,208.778z"/>
	<path d="M452.713,156.232c12.847,0,23.299-10.448,23.299-23.297c0-12.836-10.453-23.276-23.299-23.276
		c-12.871,0-23.343,10.44-23.343,23.276C429.37,145.784,439.842,156.232,452.713,156.232z"/>
	<path d="M399.164,96.867c12.842,0,23.291-10.448,23.291-23.297c0-12.836-10.448-23.28-23.291-23.28
		c-12.823,0-23.256,10.444-23.256,23.28C375.908,86.418,386.341,96.867,399.164,96.867z"/>
</g>
</svg>
