<?xml version="1.0" encoding="utf-8"?>
<!-- Generator: Adobe Illustrator 16.0.4, SVG Export Plug-In . SVG Version: 6.00 Build 0)  -->
<!DOCTYPE svg PUBLIC "-//W3C//DTD SVG 1.1//EN" "http://www.w3.org/Graphics/SVG/1.1/DTD/svg11.dtd">
<svg version="1.1" id="Layer_1" xmlns="http://www.w3.org/2000/svg" xmlns:xlink="http://www.w3.org/1999/xlink" x="0px" y="0px"
	 width="512px" height="512px" viewBox="0 0 512 512" enable-background="new 0 0 512 512" xml:space="preserve">
<path d="M289.794,15.961c3.992,6.982,9.975,24.94,12.967,29.925l20.951,48.884l40.901-16.962
	c25.935-9.975,40.899-14.959,44.889-14.959c18.955,0,37.907,15.961,37.907,35.91c0,0.997-3.992,12.968-10.976,37.908l-18.952,51.872
	l13.967,5.985c4.985,0.997,32.919,15.961,44.892,18.955c23.938,6.982,35.91,20.946,35.91,42.892
	c0,19.955-14.965,34.915-45.886,44.89c-32.922,11.972-48.883,18.954-48.883,20.951c0-1.997,19.953,49.879,27.932,70.825
	c1.996,9.975,2.993,14.965,2.993,14.965c0,19.95-14.964,37.908-35.91,37.908c-4.99,0-7.984,0-8.979-1.001l-22.942-7.978
	c-1.001,0-1.001-0.997-1.001-3.989c0-3.994,8.978-30.926,9.979-30.926c0.996-0.996,1.993-1.997,3.989-1.997l2.994,1.001
	c2.991,0.996,7.977,2.992,10.971,2.992l-39.901-100.755c0-2.993,0-3.988,0.997-3.988l103.748-42.899l-19.955-9.975
	c-44.889-17.953-71.82-29.925-82.796-34.915c-0.997,0-0.997-0.997-0.997-2.994l36.911-103.743h-1.001l-100.751,39.899l-2.991-0.996
	c-2.994-6.982-17.958-40.901-42.897-102.748c-1.994,0.996-4.985,6.982-8.976,15.961l-17.957,42.893l-17.958,41.896
	c-0.996,1.001-1.992,1.997-2.993,1.997L106.245,105.74v0.997l39.9,100.755c0,0.996-0.996,2.993-1.992,3.989l-51.877,21.946
	L41.4,254.379l22.948,10.97l15.961,5.986c28.929,12.968,49.875,21.947,62.843,26.933c0,1.001,1.997,2.992,1.997,3.993
	L107.24,406.006h0.996l100.756-39.9c1.997,0,2.993,0.996,2.993,1.992c4.99,11.972,12.968,29.93,21.947,52.873
	c9.976,22.942,16.957,39.899,21.946,49.88c0.997-1.001,2.994-6.987,7.979-17.958l17.957-41.896l17.954-42.898
	c1.001-0.996,1.996-0.996,3.992-0.996c4.985,0,17.955,4.989,37.908,13.964c0.996,1.001,0.996,1.997,0.996,2.993
	c0,3.993-3.988,14.965-11.971,31.922c0,1.001-4.986,1.001-7.979,0c-1,1.997-2.994,7.982-7.982,16.962l-12.969,33.913
	c-11.971,34.916-21.946,43.895-45.886,43.895c-6.982,0-13.968-1.997-20.951-5.986c-14.965-5.986-20.945-32.918-25.936-41.896
	c-4.99-10.972-14.965-37.908-18.954-46.887l-75.815,29.93c-4.985,0.996-8.979,1.992-10.971,1.992
	c-17.958,0-29.93-7.979-35.911-23.939c0-1.001,0-1.996-1.001-3.989l-0.996-2.992v-10.976l29.925-83.794c0-0.996,0-0.996-0.996-0.996
	l-35.911-14.965C41.4,299.27,29.433,293.283,21.45,289.294C12.471,285.3,1.5,270.34,1.5,262.357v-14.96
	c0.996-9.98,5.986-17.958,14.965-24.94l12.968-6.982c1.992,0,8.979-3.994,11.967-3.994l53.869-22.943v-0.997l-4.985-12.967
	L66.34,114.719c-0.996-2.993-1.992-6.982-1.992-11.972c0-20.946,14.96-37.908,35.911-37.908c7.978,0,17.958,2.994,29.925,7.983
	c4.99,0.996,11.972,3.989,22.948,7.978l36.907,12.968c12.968-28.929,19.95-47.883,22.943-54.865C221.96,12.968,236.925,0,256.875,0
	C270.839,0,281.814,4.99,289.794,15.961z"/>
</svg>
