<?xml version="1.0" encoding="utf-8"?>
<!-- Generator: Adobe Illustrator 16.0.4, SVG Export Plug-In . SVG Version: 6.00 Build 0)  -->
<!DOCTYPE svg PUBLIC "-//W3C//DTD SVG 1.1//EN" "http://www.w3.org/Graphics/SVG/1.1/DTD/svg11.dtd">
<svg version="1.1" id="Layer_1" xmlns="http://www.w3.org/2000/svg" xmlns:xlink="http://www.w3.org/1999/xlink" x="0px" y="0px"
	 width="512px" height="512px" viewBox="0 0 512 512" enable-background="new 0 0 512 512" xml:space="preserve">
<path d="M190.031,69.544v369.567c0,38.744,30.793,69.543,67.555,69.543c36.76,0,67.554-30.799,67.554-69.543V69.544
	C325.14,30.799,294.346,0,257.586,0C220.825,0,190.031,30.799,190.031,69.544L190.031,69.544z M280.435,439.111
	c0,29.807-45.698,29.807-45.698,0V69.544c0-29.808,45.698-29.808,45.698,0V439.111z M370.843,207.632v231.479
	c0,38.744,30.794,69.543,67.555,69.543c36.755,0,67.553-30.799,67.553-69.543V207.632c0-36.755-30.798-68.546-67.553-68.546
	C401.637,139.086,370.843,168.889,370.843,207.632L370.843,207.632z M460.254,439.111c0,12.914-9.934,22.85-21.856,22.85
	c-12.915,0-22.85-9.936-22.85-22.85V207.632c0-11.917,9.935-22.849,22.85-22.849c11.923,0,21.856,10.932,21.856,22.849V439.111z
	 M9.22,346.719v92.393c0,38.744,30.799,69.543,67.554,69.543c36.761,0,67.554-30.799,67.554-69.543v-92.393
	c0-38.744-30.793-69.543-67.554-69.543C40.02,277.176,9.22,307.975,9.22,346.719L9.22,346.719z M99.623,439.111
	c0,12.914-9.934,22.85-22.849,22.85c-11.923,0-21.857-9.936-21.857-22.85v-92.393c0-12.914,9.934-22.848,21.857-22.848
	c12.915,0,22.849,9.934,22.849,22.848V439.111z"/>
</svg>
