<?xml version="1.0" encoding="utf-8"?>
<!-- Generator: Adobe Illustrator 17.0.0, SVG Export Plug-In . SVG Version: 6.00 Build 0)  -->
<!DOCTYPE svg PUBLIC "-//W3C//DTD SVG 1.1//EN" "http://www.w3.org/Graphics/SVG/1.1/DTD/svg11.dtd">
<svg version="1.1" id="Layer_1" xmlns="http://www.w3.org/2000/svg" xmlns:xlink="http://www.w3.org/1999/xlink" x="0px" y="0px"
	 width="512px" height="512px" viewBox="0 0 512 512" enable-background="new 0 0 512 512" xml:space="preserve">
<g>
	<path d="M256,6C118.148,6,6,118.148,6,256s112.148,250,250,250c51.736,0,101.387-15.674,143.582-45.312
		c9.038-6.348,11.218-18.828,4.868-27.861c-6.353-9.043-18.826-11.201-27.861-4.873C341.161,452.846,299.462,466,256,466
		c-115.793,0-210-94.209-210-210S140.207,46,256,46s210,94.209,210,210c0,42.549-12.656,83.525-36.597,118.496
		c-6.24,9.111-3.911,21.562,5.203,27.803c9.111,6.23,21.56,3.916,27.8-5.205C490.927,355.443,506,306.654,506,256
		C506,118.148,393.852,6,256,6z"/>
	<path d="M149.469,351.149c-0.271,0.576-0.551,1.144-0.758,1.746c-0.186,0.541-0.301,1.088-0.432,1.637
		c-0.132,0.552-0.273,1.095-0.352,1.658c-0.078,0.568-0.089,1.132-0.11,1.702c-0.023,0.566-0.055,1.125-0.022,1.694
		c0.034,0.572,0.134,1.129,0.224,1.693c0.087,0.554,0.157,1.104,0.3,1.655c0.162,0.626,0.4,1.22,0.629,1.824
		c0.144,0.38,0.222,0.769,0.394,1.143c0.032,0.071,0.09,0.119,0.123,0.189c0.64,1.346,1.471,2.593,2.449,3.75
		c0.239,0.281,0.496,0.526,0.751,0.79c0.809,0.844,1.71,1.604,2.703,2.287c0.293,0.201,0.562,0.424,0.865,0.606
		c0.16,0.096,0.287,0.225,0.452,0.317c0.798,0.447,1.644,0.682,2.475,0.992c0.487,0.181,0.936,0.439,1.438,0.577
		c1.525,0.419,3.073,0.658,4.617,0.658c0.004,0,0.009-0.002,0.013-0.002s0.007,0.002,0.012,0.002c1.381,0,2.767-0.209,4.143-0.547
		c0.446-0.109,0.86-0.291,1.296-0.434c0.629-0.208,1.268-0.347,1.885-0.63l222.012-102.441c0.473-0.219,0.873-0.523,1.317-0.777
		c0.351-0.2,0.696-0.385,1.033-0.61c1.234-0.823,2.369-1.746,3.33-2.817c0.101-0.112,0.173-0.248,0.271-0.363
		c0.908-1.068,1.648-2.241,2.271-3.48c0.093-0.186,0.245-0.319,0.333-0.509c0.096-0.209,0.132-0.427,0.22-0.638
		c0.237-0.569,0.423-1.147,0.599-1.738c0.156-0.527,0.311-1.049,0.417-1.58c0.111-0.562,0.168-1.127,0.225-1.7
		c0.054-0.563,0.11-1.119,0.109-1.679c0.001-0.56-0.055-1.116-0.109-1.678c-0.056-0.573-0.114-1.14-0.225-1.702
		c-0.105-0.53-0.258-1.049-0.414-1.574c-0.176-0.594-0.365-1.176-0.603-1.748c-0.087-0.208-0.122-0.425-0.217-0.631
		c-0.132-0.288-0.326-0.524-0.472-0.801c-0.287-0.544-0.59-1.072-0.933-1.584c-0.317-0.474-0.654-0.919-1.01-1.353
		c-0.353-0.431-0.721-0.843-1.118-1.241c-0.427-0.428-0.87-0.826-1.336-1.204c-0.406-0.331-0.821-0.645-1.261-0.941
		c-0.538-0.362-1.091-0.681-1.663-0.981c-0.264-0.139-0.488-0.323-0.762-0.449L172.566,137.8c-0.398-0.184-0.811-0.268-1.215-0.42
		c-0.573-0.215-1.136-0.444-1.728-0.598c-0.612-0.161-1.223-0.241-1.839-0.333c-0.493-0.074-0.977-0.165-1.474-0.197
		c-0.668-0.042-1.324-0.009-1.985,0.026c-0.465,0.024-0.926,0.028-1.39,0.09c-0.684,0.092-1.346,0.258-2.012,0.428
		c-0.43,0.11-0.86,0.195-1.285,0.339c-0.746,0.253-1.453,0.59-2.159,0.941c-0.26,0.129-0.535,0.2-0.791,0.344
		c-0.062,0.035-0.11,0.084-0.172,0.12c-0.701,0.403-1.346,0.891-1.989,1.391c-0.284,0.22-0.598,0.412-0.865,0.647
		c-0.482,0.425-0.898,0.923-1.334,1.404c-0.346,0.382-0.722,0.739-1.031,1.147c-0.292,0.387-0.523,0.828-0.786,1.243
		c-0.36,0.571-0.732,1.13-1.022,1.735c-0.042,0.088-0.105,0.159-0.146,0.248c-0.171,0.37-0.247,0.755-0.39,1.13
		c-0.231,0.608-0.471,1.208-0.634,1.838c-0.143,0.552-0.214,1.105-0.302,1.661c-0.089,0.559-0.187,1.11-0.222,1.676
		c-0.034,0.586-0.001,1.162,0.023,1.744c0.022,0.549,0.032,1.093,0.106,1.641c0.082,0.594,0.231,1.168,0.372,1.749
		c0.125,0.518,0.232,1.033,0.406,1.543c0.223,0.651,0.522,1.266,0.82,1.887c0.161,0.334,0.256,0.682,0.439,1.01l52.551,93.892
		l-52.556,93.896C149.754,350.387,149.645,350.776,149.469,351.149z M345.475,256.126l-138.666,63.984l31.031-55.439
		c0.062-0.11,0.089-0.228,0.148-0.339c0.295-0.555,0.514-1.138,0.747-1.721c0.201-0.499,0.43-0.989,0.582-1.497
		c0.154-0.518,0.229-1.052,0.336-1.582c0.116-0.582,0.262-1.158,0.317-1.744c0.051-0.529,0.018-1.061,0.02-1.595
		c0.001-0.586,0.034-1.171-0.023-1.751c-0.051-0.537-0.188-1.065-0.291-1.599c-0.112-0.58-0.197-1.163-0.367-1.729
		c-0.139-0.462-0.35-0.906-0.529-1.361c-0.248-0.633-0.49-1.264-0.812-1.866c-0.053-0.099-0.077-0.206-0.132-0.305l-31.028-55.436
		L345.475,256.126z"/>
</g>
</svg>
