<?xml version="1.0" encoding="utf-8"?>
<!-- Generator: Adobe Illustrator 17.0.0, SVG Export Plug-In . SVG Version: 6.00 Build 0)  -->
<!DOCTYPE svg PUBLIC "-//W3C//DTD SVG 1.1//EN" "http://www.w3.org/Graphics/SVG/1.1/DTD/svg11.dtd">
<svg version="1.1" id="Layer_1" xmlns="http://www.w3.org/2000/svg" xmlns:xlink="http://www.w3.org/1999/xlink" x="0px" y="0px"
	 width="512px" height="512px" viewBox="0 0 512 512" enable-background="new 0 0 512 512" xml:space="preserve">
<g>
	<path d="M504.838,262.674c0.102-0.289,0.19-0.583,0.279-0.876c0.104-0.342,0.208-0.683,0.293-1.027
		c0.066-0.269,0.117-0.54,0.172-0.812c0.074-0.366,0.149-0.73,0.202-1.097c0.04-0.278,0.063-0.558,0.092-0.838
		c0.036-0.356,0.075-0.712,0.092-1.068c0.015-0.316,0.01-0.634,0.011-0.951c0-0.318,0.005-0.635-0.011-0.951
		c-0.017-0.356-0.056-0.712-0.092-1.068c-0.029-0.28-0.052-0.56-0.092-0.838c-0.053-0.367-0.128-0.732-0.202-1.097
		c-0.055-0.271-0.105-0.543-0.172-0.812c-0.085-0.344-0.189-0.685-0.293-1.027c-0.089-0.294-0.177-0.587-0.279-0.876
		c-0.108-0.304-0.231-0.604-0.354-0.905c-0.132-0.323-0.268-0.644-0.417-0.961c-0.054-0.115-0.094-0.233-0.151-0.347
		C456.896,152.173,361.897,93.187,256,93.187S55.104,152.168,8.083,247.116c-0.054,0.108-0.091,0.22-0.143,0.329
		c-0.156,0.33-0.297,0.665-0.435,1.002c-0.118,0.289-0.236,0.577-0.34,0.868c-0.107,0.3-0.198,0.605-0.29,0.91
		c-0.1,0.332-0.202,0.663-0.284,0.997c-0.068,0.277-0.121,0.557-0.177,0.838c-0.072,0.358-0.146,0.715-0.198,1.075
		c-0.041,0.283-0.064,0.568-0.094,0.853c-0.036,0.352-0.074,0.704-0.091,1.056c-0.015,0.317-0.01,0.635-0.011,0.953
		c0,0.318-0.005,0.636,0.011,0.953c0.017,0.352,0.055,0.704,0.091,1.057c0.029,0.285,0.052,0.57,0.093,0.852
		c0.052,0.36,0.126,0.718,0.198,1.076c0.056,0.279,0.109,0.559,0.177,0.836c0.083,0.335,0.184,0.667,0.285,1
		c0.092,0.304,0.182,0.606,0.288,0.905c0.104,0.294,0.223,0.584,0.343,0.875c0.136,0.334,0.276,0.666,0.431,0.993
		c0.052,0.11,0.09,0.224,0.145,0.334C55.104,359.827,150.103,418.813,256,418.813c105.887,0,200.876-58.981,247.917-153.926
		c0.056-0.114,0.096-0.231,0.15-0.346c0.149-0.317,0.285-0.638,0.418-0.963C504.608,263.278,504.73,262.978,504.838,262.674z
		 M256,378.813c-87.237,0-165.818-46.805-207.443-122.817C90.182,179.99,168.763,133.187,256,133.187
		c87.236,0,165.816,46.804,207.442,122.815C421.808,332.01,343.228,378.813,256,378.813z"/>
	<path d="M256,166.563c-49.316,0-89.442,40.122-89.442,89.437c0,49.313,40.126,89.435,89.442,89.435s89.432-40.122,89.432-89.435
		C345.432,206.684,305.316,166.563,256,166.563z M256,305.435c-27.265,0-49.443-22.177-49.443-49.435
		c0-27.26,22.177-49.438,49.443-49.438c27.255,0,49.433,22.177,49.433,49.438C305.433,283.258,283.255,305.435,256,305.435z"/>
</g>
</svg>
