<?xml version="1.0" encoding="utf-8"?>
<!-- Generator: Adobe Illustrator 17.0.0, SVG Export Plug-In . SVG Version: 6.00 Build 0)  -->
<!DOCTYPE svg PUBLIC "-//W3C//DTD SVG 1.1//EN" "http://www.w3.org/Graphics/SVG/1.1/DTD/svg11.dtd">
<svg version="1.1" id="Layer_1" xmlns="http://www.w3.org/2000/svg" xmlns:xlink="http://www.w3.org/1999/xlink" x="0px" y="0px"
	 width="512px" height="512px" viewBox="0 0 512 512" enable-background="new 0 0 512 512" xml:space="preserve">
<path d="M346.503,506H33.063c-10.679,0-19.342-8.66-19.342-19.34c0-55.119,25.088-106.01,68.845-139.644
	c8.444-6.49,20.605-4.945,27.115,3.548c6.51,8.463,4.925,20.605-3.548,27.115c-28.954,22.267-47.436,54.222-52.39,89.64h272.079
	c-4.954-35.4-23.446-67.346-52.4-89.62c-8.463-6.519-10.049-18.661-3.538-27.125c6.519-8.473,18.671-10.038,27.125-3.538
	c43.748,33.654,68.836,84.545,68.836,139.625C365.844,497.34,357.182,506,346.503,506L346.503,506z M478.937,375.859h-105.15
	c-10.679,0-19.342-8.662-19.342-19.342c0-10.679,8.662-19.342,19.342-19.342h84.469c-4.954-35.418-23.446-67.354-52.41-89.611
	c-8.473-6.51-10.057-18.652-3.557-27.125c6.519-8.463,18.671-10.048,27.125-3.557c43.767,33.636,68.865,84.525,68.865,139.634
	C498.279,367.197,489.617,375.859,478.937,375.859L478.937,375.859z M189.689,349.271c-58.939,0-106.896-48.024-106.896-107.045
	c0-58.997,47.958-106.989,106.896-106.989c59.041,0,107.084,47.993,107.084,106.989C296.773,301.248,248.73,349.271,189.689,349.271
	L189.689,349.271z M189.689,173.918c-37.617,0-68.213,30.643-68.213,68.308c0,37.69,30.597,68.362,68.213,68.362
	c37.719,0,68.401-30.672,68.401-68.362C258.09,204.561,227.408,173.918,189.689,173.918L189.689,173.918z M339.879,218.205
	c-9,0.01-17.058-6.313-18.936-15.464c-2.131-10.473,4.614-20.69,15.077-22.831c31.569-6.444,54.485-34.589,54.485-66.902
	c0-37.672-30.672-68.327-68.364-68.327c-31.02,0-58.135,20.916-65.947,50.872c-2.699,10.341-13.201,16.578-23.606,13.833
	c-10.332-2.699-16.521-13.267-13.831-23.606C231.011,38.803,273.524,6,322.141,6c59.024,0,107.047,48.002,107.047,107.008
	c0,50.607-35.928,94.687-85.412,104.81C342.464,218.081,341.162,218.205,339.879,218.205L339.879,218.205z"/>
</svg>
