<?xml version="1.0" encoding="utf-8"?>
<!-- Generator: Adobe Illustrator 16.0.4, SVG Export Plug-In . SVG Version: 6.00 Build 0)  -->
<!DOCTYPE svg PUBLIC "-//W3C//DTD SVG 1.1//EN" "http://www.w3.org/Graphics/SVG/1.1/DTD/svg11.dtd">
<svg version="1.1" id="Layer_1" xmlns="http://www.w3.org/2000/svg" xmlns:xlink="http://www.w3.org/1999/xlink" x="0px" y="0px"
	 width="512px" height="512px" viewBox="0 0 512 512" enable-background="new 0 0 512 512" xml:space="preserve">
<path d="M478.395,511.885H37.611c-8.976,0-16.952-7.976-16.952-16.952c0-78.784,29.916-141.612,89.752-190.476
	c8.976-6.979,16.951-5.984,23.931,2.991c6.985,7.977,5.984,15.956-2.992,23.932c-45.872,36.9-71.799,85.764-76.788,146.596h406.88
	c-4.989-60.831-30.916-109.695-76.789-146.596c-8.976-7.976-9.971-15.955-2.991-23.932c6.979-8.976,14.96-9.971,23.932-2.991
	c59.837,48.863,89.752,111.691,89.752,190.476C495.347,503.909,487.371,511.885,478.395,511.885L478.395,511.885z M357.727,244.621
	c-26.923,27.924-58.835,41.883-97.727,41.883c-38.892,0-71.805-13.959-98.728-41.883c-26.929-27.92-40.889-61.828-40.889-100.72
	c0-38.896,13.959-72.8,40.889-100.724C188.195,15.252,221.108,1.293,260,1.293c38.892,0,70.804,13.959,97.727,41.884
	c26.928,27.924,40.889,61.828,40.889,100.724C398.615,182.793,384.654,216.701,357.727,244.621L357.727,244.621z M334.791,67.113
	c-40.889-42.884-108.7-42.884-149.587,0c-40.889,42.88-40.889,110.691,0,153.576c40.888,40.888,108.699,40.888,149.587,0
	C375.679,177.804,375.679,109.993,334.791,67.113z"/>
</svg>
