<?xml version="1.0" encoding="utf-8"?>
<!-- Generator: Adobe Illustrator 17.0.0, SVG Export Plug-In . SVG Version: 6.00 Build 0)  -->
<!DOCTYPE svg PUBLIC "-//W3C//DTD SVG 1.1//EN" "http://www.w3.org/Graphics/SVG/1.1/DTD/svg11.dtd">
<svg version="1.1" id="Layer_1" xmlns="http://www.w3.org/2000/svg" xmlns:xlink="http://www.w3.org/1999/xlink" x="0px" y="0px"
	 width="512px" height="512px" viewBox="0 0 512 512" enable-background="new 0 0 512 512" xml:space="preserve">
<g>
	<g>
		<path fill="#0073A0" d="M255.995,429.234c-93.842,0-178.403-11.052-215.439-28.153l-3.815-1.766l-2.42-3.444
			C16.85,371.011,6,317.42,6,255.997c0-61.428,10.85-115.025,28.327-139.875l2.414-3.439l3.815-1.76
			c37.035-17.106,121.597-28.158,215.439-28.158c39.673,0,78.779,1.973,113.101,5.706c8.578,0.932,14.779,8.643,13.842,17.221
			c-0.937,8.578-8.632,14.79-17.221,13.842c-33.21-3.608-71.161-5.52-109.722-5.52c-97.264,0-168.289,11.553-198.278,23.542
			c-10.234,18.044-20.469,60.888-20.469,118.441s10.234,100.398,20.469,118.436c29.978,11.989,101.003,23.542,198.278,23.542
			c97.264,0,168.294-11.542,198.278-23.531c10.234-18.049,20.469-60.894,20.469-118.447c0-57.569-10.234-100.414-20.469-118.452
			c-7.379-2.965-16.916-5.793-28.414-8.42c-8.414-1.918-13.678-10.3-11.76-18.708c1.929-8.398,10.322-13.684,18.714-11.755
			c15.858,3.619,28.85,7.744,38.627,12.262l3.815,1.76l2.42,3.433C495.144,140.962,506,194.559,506,255.997
			c0,61.433-10.856,115.035-28.327,139.875l-2.42,3.433l-3.815,1.755C434.414,418.172,349.847,429.234,255.995,429.234z"/>
	</g>
	<g>
		<path fill="#0073A0" d="M208.104,355.033V153.888L363.123,254.46L208.104,355.033z M239.352,211.414v86.093l66.354-43.046
			L239.352,211.414z"/>
	</g>
</g>
</svg>
