<?xml version="1.0" encoding="utf-8"?>
<!-- Generator: Adobe Illustrator 16.0.4, SVG Export Plug-In . SVG Version: 6.00 Build 0)  -->
<!DOCTYPE svg PUBLIC "-//W3C//DTD SVG 1.1//EN" "http://www.w3.org/Graphics/SVG/1.1/DTD/svg11.dtd">
<svg version="1.1" id="Layer_1" xmlns="http://www.w3.org/2000/svg" xmlns:xlink="http://www.w3.org/1999/xlink" x="0px" y="0px"
	 width="512px" height="512px" viewBox="0 0 512 512" enable-background="new 0 0 512 512" xml:space="preserve">
<path d="M103.977,491.934c-8.172,0-13.275-4.083-15.319-11.23c-13.276-44.935-19.404-76.593-18.384-94.972
	c1.025-18.383,11.236-49.017,28.595-92.932c5.108-9.191,12.256-12.25,21.448-9.191c11.23,5.108,14.294,12.256,9.186,21.447
	c-16.339,40.85-25.525,68.421-26.55,82.715c-1.02,14.3,5.108,41.87,16.339,82.722c3.063,11.229,0,17.358-10.212,20.422
	C108.06,491.934,106.016,491.934,103.977,491.934L103.977,491.934z M37.595,362.24c-11.231,0-16.339-5.104-16.339-16.335
	c-1.02-70.464,27.575-113.354,83.74-128.673c9.191-3.064,16.339,0,20.422,10.211c3.064,11.236-1.019,17.364-11.231,20.428
	c-43.915,13.275-60.253,40.846-60.253,98.034C53.934,354.073,46.787,362.24,37.595,362.24L37.595,362.24z M103.977,195.789
	L90.701,180.47c-19.403-21.447-32.679-39.826-38.806-53.101c-6.128-13.275-8.172-35.743-6.128-65.357
	c1.02-10.212,7.147-15.32,17.359-15.32c9.192,1.02,16.339,9.192,15.319,18.384c-2.044,23.487-1.025,39.826,4.083,50.038
	c5.108,10.21,15.32,24.505,32.679,43.909l13.275,15.319c8.171,8.172,8.171,15.32-1.02,22.467
	C122.354,201.913,111.124,202.937,103.977,195.789L103.977,195.789z M408.293,491.934c-2.045,0-4.089,0-5.108-1.02
	c-9.191-1.02-13.274-11.235-10.211-20.422c11.23-39.831,16.339-67.402,15.319-81.696c-1.024-15.319-9.192-42.891-25.53-83.74
	c-5.109-9.191-2.046-16.339,9.19-21.447c9.188-3.059,16.34,0,21.442,9.191c17.364,43.915,26.551,75.568,27.576,92.932
	c2.039,17.358-4.089,49.018-17.364,94.972C421.568,487.851,416.46,491.934,408.293,491.934L408.293,491.934z M458.33,345.905
	c1.02-57.188-16.339-84.759-60.249-98.034c-10.217-3.064-14.3-9.192-11.235-20.428c4.083-10.211,11.235-13.275,20.423-10.211
	c56.17,15.32,84.76,58.209,83.74,128.673c0,11.231-5.109,16.335-16.339,16.335C463.438,362.24,458.33,357.137,458.33,345.905
	L458.33,345.905z M384.807,196.809c-9.192-7.147-9.192-14.295-1.025-22.467l13.276-15.319
	c17.362-19.403,27.574-33.698,32.678-43.909c5.108-10.211,6.128-26.551,4.083-50.038c-1.02-9.192,6.128-17.364,15.32-18.384
	c10.211,0,16.339,5.108,17.358,15.32c2.045,29.614,0,51.057-6.122,65.357c-6.129,13.275-19.403,31.653-38.807,53.101l-13.275,15.319
	C401.141,202.937,389.91,201.913,384.807,196.809L384.807,196.809z M254.093,477.639h2.039c23.487,0,47.998-18.384,72.504-55.145
	c24.512-36.763,40.851-82.716,47.998-138.886c8.173-50.037,3.064-84.76-16.338-106.202c-17.359-20.423-50.037-30.635-97.017-30.635
	h-9.187h-10.216c-46.974,0-79.651,10.211-98.035,30.635c-17.358,21.442-23.487,56.165-16.339,106.202
	c8.172,56.17,24.511,102.123,47.998,138.886c24.511,36.761,49.018,55.145,72.504,55.145H254.093z M256.132,510.317h-4.083
	c-35.743,0-67.401-21.447-97.016-63.317c-29.615-41.865-49.018-94.971-58.21-158.283c-9.186-60.249-1.019-104.163,24.512-132.759
	c23.486-27.569,64.337-41.864,122.541-41.864h10.216h9.187c58.209,0,99.061,14.294,122.547,41.864
	c24.506,28.596,32.679,72.51,23.486,132.759c-9.192,63.312-28.596,116.418-58.21,158.283
	C322.509,488.87,290.854,510.317,256.132,510.317L256.132,510.317z M309.233,137.581c0-29.615-24.507-55.145-56.166-55.145
	c-31.653,0-55.145,25.53-55.145,55.145c0,11.23-5.104,16.339-16.339,16.339c-11.231,0-16.339-5.109-16.339-16.339
	c0-49.018,38.806-87.824,87.823-87.824c49.018,0,88.844,38.806,88.844,87.824c0,11.23-5.104,16.339-16.341,16.339
	C314.342,153.92,309.233,148.811,309.233,137.581L309.233,137.581z M205.07,105.922c-3.059,0-5.103-1.02-8.167-2.045
	c-57.189-35.743-83.74-64.332-79.651-87.818c1.019-9.192,10.211-16.339,18.378-13.28c11.236,1.024,15.32,7.152,14.3,18.383
	c1.02,8.172,31.654,34.723,64.332,55.146c9.192,5.109,11.236,13.276,5.108,22.468C216.306,103.877,212.223,105.922,205.07,105.922
	L205.07,105.922z M301.065,105.922c-7.146,0-11.235-2.045-14.294-7.147c-5.108-10.211-3.064-17.359,5.103-22.468
	c32.679-20.422,63.312-46.973,64.338-56.165c-1.026-10.211,3.063-16.339,14.295-18.383c11.235-1.02,17.357,3.063,18.384,14.3
	c4.083,22.461-22.468,52.076-78.632,87.818C306.169,104.902,303.104,105.922,301.065,105.922z"/>
</svg>
