<?xml version="1.0" encoding="utf-8"?>
<!-- Generator: Adobe Illustrator 17.0.0, SVG Export Plug-In . SVG Version: 6.00 Build 0)  -->
<!DOCTYPE svg PUBLIC "-//W3C//DTD SVG 1.1//EN" "http://www.w3.org/Graphics/SVG/1.1/DTD/svg11.dtd">
<svg version="1.1" id="Layer_1" xmlns="http://www.w3.org/2000/svg" xmlns:xlink="http://www.w3.org/1999/xlink" x="0px" y="0px"
	 width="512px" height="512px" viewBox="0 0 512 512" enable-background="new 0 0 512 512" xml:space="preserve">
<g>
	<path d="M428.794,6v50.537H122.862c-40.786,0-73.97,33.184-73.97,73.97v250.986c0,40.786,33.184,73.97,73.97,73.97h305.932V506
		h34.314V6H428.794z M122.862,421.149c-21.867,0-39.656-17.789-39.656-39.656V130.507c0-21.867,17.789-39.656,39.656-39.656h305.932
		v330.298H122.862z"/>
	<path d="M205.833,196.726c0-10.889-5.132-14.521-20.297-14.521c-10.461,0-25.208,1.28-33.966,2.56v20.72h23.714v103.167h-24.78
		v21.785h76.25v-21.785h-20.922V196.726z"/>
	<path d="M302.542,308.652l25.417-27.769c23.077-25.203,31.186-39.086,31.186-57.24c0-12.175-3.626-21.577-10.461-28.411
		c-8.978-8.972-22.856-13.67-43.79-13.67c-11.955,0-25.416,1.923-33.955,4.061v22.636c9.175-1.703,20.285-2.774,28.614-2.774
		c10.473,0,17.725,1.708,22.22,5.555c3.846,3.203,5.758,7.9,5.758,14.099c0,12.175-6.835,21.785-23.065,41.433l-28.406,34.603
		c-6.197,7.478-8.549,13.456-8.549,22.428c0,2.352,0.22,5.126,0.857,6.835h93.129v-21.785H302.542z"/>
</g>
</svg>
