<?xml version="1.0" encoding="utf-8"?>
<!-- Generator: Adobe Illustrator 17.0.0, SVG Export Plug-In . SVG Version: 6.00 Build 0)  -->
<!DOCTYPE svg PUBLIC "-//W3C//DTD SVG 1.1//EN" "http://www.w3.org/Graphics/SVG/1.1/DTD/svg11.dtd">
<svg version="1.1" id="Layer_1" xmlns="http://www.w3.org/2000/svg" xmlns:xlink="http://www.w3.org/1999/xlink" x="0px" y="0px"
	 width="512px" height="512px" viewBox="0 0 512 512" enable-background="new 0 0 512 512" xml:space="preserve">
<g>
	<g>
		<path d="M256.001,444.774l-46.482-54.477c11.054-13.378,27.773-21.904,46.482-21.904c18.704,0,35.418,8.52,46.472,21.892
			L256.001,444.774z"/>
	</g>
	<g>
		<path d="M155.937,348.986c-5.534,0-11.062-2.129-15.264-6.365c-8.341-8.43-8.271-22.03,0.157-30.377
			c30.851-30.524,71.753-47.343,115.172-47.343c43.408,0,84.312,16.809,115.174,47.343c8.433,8.336,8.506,21.936,0.165,30.366
			c-8.341,8.441-21.936,8.514-30.369,0.168c-22.77-22.523-52.947-34.928-84.97-34.928c-32.031,0-62.203,12.405-84.957,34.928
			C166.858,346.92,161.395,348.986,155.937,348.986z"/>
	</g>
	<g>
		<path d="M420.34,273.699c-5.243,0-10.496-1.908-14.635-5.767c-40.773-37.989-93.938-58.919-149.703-58.919
			c-55.757,0-108.917,20.919-149.688,58.898c-8.677,8.095-22.264,7.613-30.351-1.07c-8.084-8.682-7.602-22.261,1.075-30.345
			c48.748-45.424,112.306-70.432,178.964-70.432c66.668,0,130.234,25.019,178.985,70.453c8.677,8.084,9.157,21.674,1.07,30.345
			C431.827,271.403,426.092,273.699,420.34,273.699z"/>
	</g>
	<g>
		<path d="M484.52,198.444c-5.154,0-10.32-1.845-14.433-5.578c-58.696-53.319-134.727-82.69-214.085-82.69
			c-79.361,0-155.392,29.37-214.088,82.69c-8.774,7.959-22.355,7.329-30.335-1.458c-7.974-8.776-7.322-22.355,1.458-30.335
			c66.615-60.513,152.902-93.846,242.965-93.846c90.061,0,176.347,33.334,242.963,93.846c8.779,7.98,9.432,21.558,1.455,30.335
			C496.183,196.074,490.361,198.444,484.52,198.444z"/>
	</g>
</g>
</svg>
