<?xml version="1.0" encoding="utf-8"?>
<!-- Generator: Adobe Illustrator 17.0.0, SVG Export Plug-In . SVG Version: 6.00 Build 0)  -->
<!DOCTYPE svg PUBLIC "-//W3C//DTD SVG 1.1//EN" "http://www.w3.org/Graphics/SVG/1.1/DTD/svg11.dtd">
<svg version="1.1" id="Layer_1" xmlns="http://www.w3.org/2000/svg" xmlns:xlink="http://www.w3.org/1999/xlink" x="0px" y="0px"
	 width="512px" height="512px" viewBox="0 0 512 512" enable-background="new 0 0 512 512" xml:space="preserve">
<g>
	<path fill="#FFFFFF" d="M105.646,48.002L59.338,220.061c0,0,109.574-42.927,186.519,11.408l47.984-172.86
		C293.84,58.608,220.328-3.465,105.646,48.002z"/>
	<path fill="#FFFFFF" d="M52.308,245.579L6,417.648c0,0,109.605-42.855,186.508,11.51l48.035-172.963
		C240.554,256.195,167.052,194.142,52.308,245.579z"/>
	<path fill="#FFFFFF" d="M459.692,260.09L506,88.021c0,0-109.636,42.938-186.549-11.459l-47.994,172.912
		C271.457,249.474,344.979,311.476,459.692,260.09z"/>
	<path fill="#FFFFFF" d="M402.818,463.998l46.298-172.059c0,0-109.626,42.927-186.508-11.408l-48.035,172.86
		C214.573,453.392,288.075,515.465,402.818,463.998z"/>
</g>
</svg>
