<?xml version="1.0" encoding="utf-8"?>
<!-- Generator: Adobe Illustrator 19.2.1, SVG Export Plug-In . SVG Version: 6.00 Build 0)  -->
<svg version="1.1" id="Layer_1" xmlns="http://www.w3.org/2000/svg" xmlns:xlink="http://www.w3.org/1999/xlink" x="0px" y="0px"
	 viewBox="0 0 512 512" style="enable-background:new 0 0 512 512;" xml:space="preserve">
<g>
	<polygon points="66.4,147.1 37.6,147.1 6,313.3 100.2,313.3 104.9,288.2 39.5,288.2 	"/>
	<path d="M187.8,190.5c-40.9,0-69.3,35.3-69.3,75.9c0,28.6,18.7,49.6,49.1,49.6c40.9,0,69.5-35,69.5-75.7
		C237.1,213.7,220.1,190.5,187.8,190.5z M171.5,293.8c-14.5,0-23.4-11.6-23.4-28.1c0-22.4,13.3-53,36.2-53
		c17.5,0,22.9,15.3,22.9,27.6C207.2,264.3,193,293.8,171.5,293.8z"/>
	<path d="M252.9,270.4c0.2,22.7,13.8,42.4,37.7,42.4c15.3,0,27.9-6.9,37.7-21.2h0.5l-3,13.6c-5.9,27.9-20.2,36.7-38.9,36.7
		c-11.3,0-24.7-3-31.8-7.1l-6.9,21.9c7.9,4.9,22.2,8.1,37.5,8.1c15,0,32.1-3,44.6-13.3c13.3-11.3,20.2-30.1,24.7-53.5l18.2-99.1
		c-11.1-4.9-26.1-8.4-41.7-8.4C281.8,190.5,252.9,230.5,252.9,270.4z M335.3,251.7c-4.2,21.7-18.5,38.7-32.8,38.7
		S283,278.6,283.3,266c0-25.9,17.8-53,42.9-53c6.7,0,12.8,1.5,15.8,3L335.3,251.7z"/>
	<path d="M456.7,190.5c-40.9,0-69.3,35.3-69.3,75.9c0,28.6,18.7,49.6,49.1,49.6c40.9,0,69.5-35,69.5-75.7
		C506,213.7,489,190.5,456.7,190.5z M440.4,293.8c-14.5,0-23.4-11.6-23.4-28.1c0-22.4,13.3-53,36.2-53c17.5,0,22.9,15.3,22.9,27.6
		C476.2,264.3,461.9,293.8,440.4,293.8z"/>
</g>
</svg>
