<?xml version="1.0" encoding="utf-8"?>
<!-- Generator: Adobe Illustrator 19.2.0, SVG Export Plug-In . SVG Version: 6.00 Build 0)  -->
<svg version="1.1" id="Layer_1" xmlns="http://www.w3.org/2000/svg" xmlns:xlink="http://www.w3.org/1999/xlink" x="0px" y="0px"
	 viewBox="0 0 512 161.3" style="enable-background:new 0 0 512 161.3;" xml:space="preserve">
<style type="text/css">
	.st0{fill:#FFFFFF;}
</style>
<g>
	<path class="st0" d="M54.4,130.4l-1.2-8.1h-0.3c-4.6,6.4-11,9.5-18.3,9.5c-12.5,0-21.9-10.5-21.9-25.2c0-21.7,19.1-30.7,38-30.8
		v-1.9c0-6.4-3.9-11.2-11.7-11.2c-6.6,0-12,1.7-16.9,4.7L18,52.4c4.6-2.7,14.2-6.3,25.8-6.3c25.2,0,29.3,17.6,29.3,34.4v30.8
		c0,6.6,0.3,13.4,1.4,19H54.4z M51.4,90.1c-7.5,0.2-17.6,2.5-17.6,14.1c0,8.3,4.6,11.4,8,11.4c3.6,0,7.6-2.2,9.2-7.1
		c0.3-1.2,0.5-2.5,0.5-3.9V90.1z"/>
	<path class="st0" d="M165.8,143.1v8.5H81v-8.5H165.8z"/>
	<path class="st0" d="M230.3,128.7c-3.2,1.5-9.5,2.7-17.3,2.7c-29.1,0-43-24.1-43-56.4c0-43,23.9-59.8,46.1-59.8
		c7.8,0,13.2,1.5,15.4,3.1l-3.7,18.6c-2.5-1.2-5.4-2.2-10.3-2.2c-12.5,0-23.9,10.8-23.9,39.1c0,27.3,10.3,38,23.9,38
		c3.7,0,8-0.8,10.7-1.7L230.3,128.7z"/>
	<path class="st0" d="M295.2,128.7c-3.2,1.5-9.5,2.7-17.3,2.7c-29.1,0-43-24.1-43-56.4c0-43,23.9-59.8,46.1-59.8
		c7.8,0,13.2,1.5,15.4,3.1l-3.7,18.6c-2.5-1.2-5.4-2.2-10.3-2.2c-12.5,0-23.9,10.8-23.9,39.1c0,27.3,10.3,38,23.9,38
		c3.7,0,8-0.8,10.7-1.7L295.2,128.7z"/>
	<path class="st0" d="M304.9,107.7c4.6,2.5,12.4,4.4,18.8,4.4c10.5,0,15.6-5.4,15.6-12.9c0-8.3-5.1-12.4-14.7-18.6
		C309,71.1,303,59,303,48.7c0-18.3,12.2-33.6,36.1-33.6c7.5,0,14.6,2,18,4.1l-3.6,19.1c-3.2-2-8.1-3.9-14.6-3.9
		c-9.5,0-14.1,5.8-14.1,11.9c0,6.8,3.4,10.3,15.8,17.8c15.1,9.2,20.7,20.7,20.7,32.7c0,20.8-15.4,34.6-37.8,34.6
		c-9.2,0-18.1-2.4-21.9-4.6L304.9,107.7z"/>
	<path class="st0" d="M440.8,143.1l-1.7,8.5h-84.7l1.7-8.5H440.8z"/>
	<path class="st0" d="M460.8,130.4V63.3h-11.2V47.5h11.2v-3.4c0-9.3,1.9-18,8.5-24.7c4.9-5.1,12-7.6,19.8-7.6
		c5.8,0,10.2,0.8,13.4,1.9L500,30.9c-1.7-0.7-4.1-1-6.8-1c-7.5,0-10.2,6.4-10.2,13.7v3.9h14.4v15.8H483v67.1H460.8z"/>
</g>
</svg>
